<svg clip-rule="evenodd" fill-rule="evenodd" stroke-linejoin="round" stroke-miterlimit="2" viewBox="0 0 1100 850" xmlns="http://www.w3.org/2000/svg"><path d="m0 0h1100v850h-1100z" fill="none"/><g fill="#0d28f2"><path d="m210.566 209.723 13.072-32.682c.484-1.21.66-2.521.512-3.815l-14.714-128.751c-.452-3.955-3.837-6.975-7.818-6.975h-33.169c-3.981 0-7.366 3.02-7.818 6.975l-14.714 128.751c-.148 1.294.028 2.605.512 3.815l13.072 32.682c1.167 2.917.48 6.265-1.742 8.486l-.742.743c-2.213 2.212-3.457 5.216-3.457 8.346v68.906c0 3.129 1.244 6.134 3.457 8.346l-1.153-1.152c3.053 3.052 3.053 8.075 0 11.128l-7.868 7.868c-1.475 1.475-2.305 3.478-2.305 5.564v294.45c0 2.086.83 4.089 2.305 5.564l7.193 7.193c1.475 1.475 2.305 3.478 2.305 5.564v18.379c0 4.316 3.552 7.868 7.868 7.868h39.343c4.316 0 7.868-3.552 7.868-7.868v-18.379c0-2.086.83-4.089 2.305-5.564l7.193-7.193c1.475-1.475 2.305-3.478 2.305-5.564v-294.45c0-2.086-.83-4.089-2.305-5.564l-7.868-7.868c-3.052-3.053-3.052-8.076 0-11.128l-1.153 1.152c2.213-2.212 3.457-5.217 3.457-8.346v-68.906c0-3.13-1.244-6.134-3.457-8.346l-.742-.743c-2.222-2.221-2.909-5.569-1.742-8.486" fill-rule="nonzero"/><path d="m351.901 401.079c-3.053-3.053-3.053-8.076 0-11.128l7.868-7.869c1.475-1.475 2.305-3.477 2.305-5.563v-294.45c0-2.086-.83-4.089-2.305-5.564l-7.193-7.194c-1.475-1.475-2.305-3.477-2.305-5.564v-18.379c0-4.316-3.552-7.868-7.868-7.868h-39.343c-4.316 0-7.868 3.552-7.868 7.868v18.379c0 2.087-.83 4.089-2.305 5.564l-7.193 7.194c-1.475 1.475-2.305 3.478-2.305 5.564v294.45c0 2.086.83 4.088 2.305 5.563l7.868 7.869c3.053 3.052 3.053 8.075 0 11.128l1.153-1.153c-2.213 2.213-3.457 5.217-3.457 8.346v68.907c0 3.129 1.244 6.133 3.457 8.346l.742.742c2.222 2.222 2.909 5.57 1.742 8.486l-13.072 32.682c-.484 1.21-.66 2.521-.512 3.816l14.714 128.75c.452 3.955 3.837 6.975 7.818 6.975h33.169c3.981 0 7.366-3.02 7.818-6.975l14.714-128.75c.148-1.295-.028-2.606-.512-3.816l-13.072-32.682c-1.167-2.916-.48-6.264 1.742-8.486l.742-.742c2.213-2.213 3.457-5.217 3.457-8.346v-68.907c0-3.129-1.244-6.133-3.457-8.346z" fill-rule="nonzero"/><path d="m37.5 37.5h78.685v629.476h-78.685z" fill-rule="nonzero"/><path d="m810.576 450.594h-381.62c-4.317 0-7.869-3.552-7.869-7.869v-180.974c0-4.317 3.552-7.868 7.869-7.868h381.62c4.316 0 7.868 3.551 7.868 7.868v180.974c0 4.317-3.552 7.869-7.868 7.869zm-196.712-165.238c0-10.791-8.88-19.671-19.671-19.671h-141.632c-10.791 0-19.671 8.88-19.671 19.671v133.764c0 10.791 8.88 19.671 19.671 19.671h141.632c10.791 0 19.671-8.88 19.671-19.671zm192.777 0c0-10.791-8.879-19.671-19.671-19.671h-141.632c-10.791 0-19.671 8.88-19.671 19.671v133.764c0 10.791 8.88 19.671 19.671 19.671h141.632c10.792 0 19.671-8.88 19.671-19.671z"/></g></svg>