<svg clip-rule="evenodd" fill-rule="evenodd" stroke-linejoin="round" stroke-miterlimit="2" viewBox="0 0 1100 850" xmlns="http://www.w3.org/2000/svg"><path d="m0 0h1100v850h-1100z" fill="none"/><g fill="#808080"><path d="m428.859 253.883h-381.62c-4.317 0-7.869-3.552-7.869-7.869v-200.646c0-4.316 3.552-7.868 7.869-7.868h381.62c4.316 0 7.868 3.552 7.868 7.868v200.646c0 4.317-3.552 7.869-7.868 7.869zm-381.62-11.803c0 2.158 1.776 3.934 3.934 3.934h373.751c2.159 0 3.935-1.776 3.935-3.934v-192.777c0-2.159-1.776-3.935-3.935-3.935h-373.751c-2.158 0-3.934 1.776-3.934 3.935z"/><path d="m59.041 218.474v-145.566c0-8.633 7.104-15.737 15.737-15.737h326.541c8.633 0 15.737 7.104 15.737 15.737v145.566c0 8.633-7.104 15.737-15.737 15.737h-326.541c-8.633 0-15.737-7.104-15.737-15.737zm7.869 0c0 4.317 3.552 7.869 7.868 7.869h326.541c4.317 0 7.868-3.552 7.868-7.869v-145.566c0-4.316-3.551-7.868-7.868-7.868h-326.541c-4.316 0-7.868 3.552-7.868 7.868z"/><path d="m39.37 698.45v-200.645c0-4.317 3.552-7.869 7.869-7.869h141.632c4.316 0 7.868 3.552 7.868 7.869v200.645c0 4.317-3.552 7.869-7.868 7.869h-141.632c-4.317 0-7.869-3.552-7.869-7.869zm7.869-3.934c0 2.158 1.776 3.934 3.934 3.934h133.763c2.159 0 3.935-1.776 3.935-3.934v-192.777c0-2.158-1.776-3.934-3.935-3.934h-133.763c-2.158 0-3.934 1.776-3.934 3.934z"/><path d="m59.041 670.911v-145.567c0-8.633 7.104-15.737 15.737-15.737h86.553c8.633 0 15.737 7.104 15.737 15.737v145.567c0 8.633-7.104 15.737-15.737 15.737h-86.553c-8.633 0-15.737-7.104-15.737-15.737zm7.869 0c0 4.316 3.552 7.868 7.868 7.868h86.553c4.317 0 7.869-3.552 7.869-7.868v-145.567c0-4.316-3.552-7.868-7.869-7.868h-86.553c-4.316 0-7.868 3.552-7.868 7.868z"/><path d="m216.41 590.259v-92.454c0-4.317 3.552-7.869 7.869-7.869h204.58c4.316 0 7.868 3.552 7.868 7.869v92.454c0 4.316-3.552 7.868-7.868 7.868h-204.58c-4.317 0-7.869-3.552-7.869-7.868zm7.869-3.934c0 2.158 1.776 3.934 3.934 3.934h196.711c2.159 0 3.935-1.776 3.935-3.934v-84.586c0-2.158-1.776-3.934-3.935-3.934h-196.711c-2.158 0-3.934 1.776-3.934 3.934z"/><path d="m236.081 562.719v-37.375c0-8.633 7.104-15.737 15.737-15.737h149.501c8.633 0 15.737 7.104 15.737 15.737v37.375c0 8.633-7.104 15.737-15.737 15.737h-149.501c-8.633 0-15.737-7.104-15.737-15.737zm15.737-45.243c-4.316 0-7.868 3.552-7.868 7.868v37.375c0 4.317 3.552 7.869 7.868 7.869h149.501c4.317 0 7.868-3.552 7.868-7.869v-37.375c0-4.316-3.551-7.868-7.868-7.868z"/><path d="m535.083 281.422v180.975c0 4.316-3.552 7.868-7.869 7.868h-62.947c-4.317 0-7.869-3.552-7.869-7.868v-180.975c0-4.316 3.552-7.868 7.869-7.868h62.947c4.317 0 7.869 3.552 7.869 7.868zm-11.803 180.975c2.158 0 3.934-1.776 3.934-3.935v-173.106c0-2.158-1.776-3.934-3.934-3.934h-55.079c-2.158 0-3.934 1.776-3.934 3.934v173.106c0 2.159 1.776 3.935 3.934 3.935z"/><path d="m527.214 253.883h-62.947c-4.317 0-7.869-3.552-7.869-7.869v-180.974c0-4.317 3.552-7.869 7.869-7.869h62.947c4.317 0 7.869 3.552 7.869 7.869v180.974c0 4.317-3.552 7.869-7.869 7.869zm-3.934-7.869c2.158 0 3.934-1.776 3.934-3.934v-173.106c0-2.158-1.776-3.934-3.934-3.934h-55.079c-2.158 0-3.934 1.776-3.934 3.934v173.106c0 2.158 1.776 3.934 3.934 3.934z"/><path d="m535.083 497.805v180.974c0 4.317-3.552 7.869-7.869 7.869h-62.947c-4.317 0-7.869-3.552-7.869-7.869v-180.974c0-4.317 3.552-7.869 7.869-7.869h62.947c4.317 0 7.869 3.552 7.869 7.869zm-11.803 180.974c2.158 0 3.934-1.776 3.934-3.934v-173.106c0-2.158-1.776-3.934-3.934-3.934h-55.079c-2.158 0-3.934 1.776-3.934 3.934v173.106c0 2.158 1.776 3.934 3.934 3.934z"/><path d="m255.753 698.45c0 4.317 3.552 7.869 7.868 7.869h7.869c4.316 0 7.868-3.552 7.868-7.869v-62.947c0-4.317-3.552-7.869-7.868-7.869h-7.869c-4.316 0-7.868 3.552-7.868 7.869z" fill-rule="nonzero"/><path d="m295.095 698.45c0 4.317 3.552 7.869 7.868 7.869h7.869c4.316 0 7.868-3.552 7.868-7.869v-62.947c0-4.317-3.552-7.869-7.868-7.869h-7.869c-4.316 0-7.868 3.552-7.868 7.869z" fill-rule="nonzero"/><path d="m334.437 698.45c0 4.317 3.552 7.869 7.869 7.869h7.868c4.317 0 7.868-3.552 7.869-7.869v-62.947c0-4.317-3.552-7.869-7.869-7.869h-7.868c-4.317 0-7.869 3.552-7.869 7.869z" fill-rule="nonzero"/><path d="m428.859 706.319c4.316 0 7.868-3.552 7.868-7.869v-62.947c0-4.317-3.552-7.869-7.868-7.869h-7.869c-4.316 0-7.868 3.552-7.868 7.869v62.947c0 4.317 3.552 7.869 7.868 7.869z" fill-rule="nonzero"/><path d="m373.779 698.45c0 4.317 3.552 7.869 7.869 7.869h7.868c4.317 0 7.869-3.552 7.869-7.869v-62.947c0-4.317-3.552-7.869-7.869-7.869h-7.868c-4.317 0-7.869 3.552-7.869 7.869z" fill-rule="nonzero"/><path d="m216.41 698.45c0 4.317 3.552 7.869 7.869 7.869h7.868c4.317 0 7.869-3.552 7.869-7.869v-62.947c0-4.317-3.552-7.869-7.869-7.869h-7.868c-4.317 0-7.869 3.552-7.869 7.869z" fill-rule="nonzero"/><path d="m70.844 289.291c-8.633 0-15.737 7.103-15.737 15.736v133.764c0 8.633 7.104 15.737 15.737 15.737h141.632c8.633 0 15.737-7.104 15.737-15.737v-133.764c0-8.633-7.104-15.736-15.737-15.736z" fill-rule="nonzero"/><path d="m247.884 438.791c0 8.633 7.104 15.737 15.737 15.737h141.632c8.633 0 15.737-7.104 15.737-15.737v-133.764c0-8.633-7.104-15.736-15.737-15.736h-141.632c-8.633 0-15.737 7.103-15.737 15.736z" fill-rule="nonzero"/></g></svg>