<svg clip-rule="evenodd" fill-rule="evenodd" stroke-linejoin="round" stroke-miterlimit="2" viewBox="0 0 1100 850" xmlns="http://www.w3.org/2000/svg">
	<path d="m181.002 39.37c4.317 0 7.869 3.552 7.869 7.869v125.895c0 4.316-3.552 7.868-7.869 7.868h-133.763c-4.317 0-7.869-3.552-7.869-7.868v-125.895c0-4.317 3.552-7.869 7.869-7.869zm-106.224 134.003v-125.985c-36.526 35.456-36.526 90.529 0 125.985zm70.816 0v-125.985c-36.526 35.456-36.526 90.529 0 125.985zm-35.408 0v-125.985c-36.526 35.456-36.526 90.529 0 125.985zm70.816 0v-125.985c-36.526 35.456-36.526 90.529 0 125.985z" />
	<g fill-rule="nonzero">
		<path d="m78.712 273.623c0 1.08.888 1.968 1.967 1.968h7.869c1.079 0 1.967-.888 1.967-1.968v-62.947c0-1.079-.888-1.967-1.967-1.967h-7.869c-1.079 0-1.967.888-1.967 1.967z" />
		<path d="m127.89 275.591c1.079 0 1.967-.888 1.967-1.968v-62.947c0-1.079-.888-1.967-1.967-1.967h-7.868c-1.079 0-1.967.888-1.967 1.967v62.947c0 1.08.888 1.968 1.967 1.968z" />
		<path d="m167.232 275.591c1.08 0 1.968-.888 1.968-1.968v-62.947c0-1.079-.888-1.967-1.968-1.967h-7.868c-1.079 0-1.967.888-1.967 1.967v62.947c0 1.08.888 1.968 1.967 1.968z" />
		<path d="m245.917 275.591c1.079 0 1.967-.888 1.967-1.968v-62.947c0-1.079-.888-1.967-1.967-1.967h-7.868c-1.08 0-1.968.888-1.968 1.967v62.947c0 1.08.888 1.968 1.968 1.968z" />
		<path d="m198.706 275.591h7.869c1.079 0 1.967-.888 1.967-1.968v-62.947c0-1.079-.888-1.967-1.967-1.967h-7.869c-1.079 0-1.967.888-1.967 1.967v62.947c0 1.08.888 1.968 1.967 1.968z" />
		<path d="m49.206 275.591c1.079 0 1.967-.888 1.967-1.968v-62.947c0-1.079-.888-1.967-1.967-1.967h-7.869c-1.079 0-1.967.888-1.967 1.967v62.947c0 1.08.888 1.968 1.967 1.968z" />
	</g>
	<path d="m381.648 47.239v125.895c0 4.316-3.552 7.868-7.869 7.868h-133.763c-4.317 0-7.869-3.552-7.869-7.868v-125.895c0-4.317 3.552-7.869 7.869-7.869h133.763c4.317 0 7.869 3.552 7.869 7.869zm-112.036 39.519c-14.585 1.578-25.591 11.738-25.591 23.623 0 11.884 11.006 22.044 25.591 23.622zm100.393 47.245v-47.245c-14.584 1.578-25.59 11.738-25.59 23.623 0 11.884 11.006 22.044 25.59 23.622zm-125.984 38.981h125.984c2.175 0 3.937-1.763 3.937-3.937v-27.387h-133.858v27.387c0 2.174 1.763 3.937 3.937 3.937zm92.451-86.226c-14.584 1.578-25.59 11.738-25.59 23.623 0 11.884 11.006 22.044 25.59 23.622zm33.533-39.37h-125.984c-2.174 0-3.937 1.763-3.937 3.937v27.387h133.858v-27.387c0-2.174-1.762-3.937-3.937-3.937zm-66.997 39.37c-14.584 1.578-25.591 11.738-25.591 23.623 0 11.884 11.007 22.044 25.591 23.622z" />
</svg>
