<svg clip-rule="evenodd" fill-rule="evenodd" viewBox="0 0 3300 2550" xmlns="http://www.w3.org/2000/svg"><g fill="none"><path d="m0 0h3300v2550h-3300z"/><g stroke-width="3.13"><path d="m1828.71 957.261c0-12.959 10.663-23.623 23.622-23.623.038 0 .076.001.114.001 12.915.063 23.507 10.706 23.507 23.622v125.296c0 12.897-10.561 23.532-23.457 23.622-.055 0-.11 0-.164 0-12.959 0-23.622-10.663-23.622-23.622z" stroke="#00f"/><path d="m2123.99 1018.84c0-13.038 10.585-23.622 23.622-23.622 13.038 0 23.622 10.584 23.622 23.622 0 13.037-10.584 23.622-23.622 23.622-13.037 0-23.622-10.585-23.622-23.622z" stroke="#00f"/><path d="m1828.72 173.622c0-12.959 10.664-23.622 23.622-23.622.189 0 .378.002.567.007 12.737.312 23.044 10.874 23.044 23.615v130.414c0 12.959-10.664 23.622-23.622 23.622-.199 0-.398-.002-.597-.007-12.725-.328-23.014-10.885-23.014-23.614z" stroke="#00f"/><path d="m2123.99 230.457c0-13.037 10.585-23.622 23.622-23.622 13.038 0 23.622 10.585 23.622 23.622s-10.584 23.622-23.622 23.622c-13.037 0-23.622-10.585-23.622-23.622z" stroke="#00f"/><path d="m1503.91 1018.84c0-13.038 10.584-23.622 23.622-23.622 13.037 0 23.622 10.584 23.622 23.622 0 13.037-10.585 23.622-23.622 23.622-13.038 0-23.622-10.585-23.622-23.622z" stroke="#00f"/><path d="m1503.91 230.457c0-13.037 10.584-23.622 23.622-23.622 13.037 0 23.622 10.585 23.622 23.622s-10.585 23.622-23.622 23.622c-13.038 0-23.622-10.585-23.622-23.622z" stroke="#00f"/><path d="m1533.86 1348.01c0-12.959 10.663-23.622 23.622-23.622h.114c12.915.063 23.507 10.706 23.507 23.622v125.296c0 12.897-10.561 23.532-23.458 23.622-.054 0-.109 0-.163 0-12.959 0-23.622-10.663-23.622-23.622z" stroke="#00f"/><path d="m1829.14 1409.6c0-13.038 10.585-23.622 23.622-23.622 13.038 0 23.622 10.584 23.622 23.622 0 13.037-10.584 23.622-23.622 23.622-13.037 0-23.622-10.585-23.622-23.622z" stroke="#00f"/><path d="m1533.87 564.375c0-12.959 10.664-23.622 23.622-23.622.189 0 .378.002.567.007 12.736.312 23.044 10.874 23.044 23.615v130.414c0 12.959-10.664 23.622-23.622 23.622-.199 0-.398-.002-.597-.007-12.725-.328-23.014-10.885-23.014-23.614z" stroke="#00f"/><path d="m1829.14 621.21c0-13.037 10.585-23.622 23.622-23.622 13.038 0 23.622 10.585 23.622 23.622s-10.584 23.622-23.622 23.622c-13.037 0-23.622-10.585-23.622-23.622z" stroke="#00f"/><path d="m1209.06 1409.6c0-13.038 10.585-23.622 23.623-23.622 13.037 0 23.622 10.584 23.622 23.622 0 13.037-10.585 23.622-23.622 23.622-13.038 0-23.623-10.585-23.623-23.622z" stroke="#00f"/><path d="m1209.06 621.21c0-13.037 10.585-23.622 23.623-23.622 13.037 0 23.622 10.585 23.622 23.622s-10.585 23.622-23.622 23.622c-13.038 0-23.623-10.585-23.623-23.622z" stroke="#00f"/><path d="m2287.8 341.929c-12.958 0-23.622-10.663-23.622-23.622v-144.685c0-12.959 10.664-23.622 23.622-23.622h838.583c12.959 0 23.622 10.663 23.622 23.622v144.685c0 12.959-10.663 23.622-23.622 23.622z" stroke="#0f0"/><path d="m3079.13 306.496h-744.095c-19.438 0-35.433-15.995-35.433-35.433v-50.197c0-19.438 15.995-35.433 35.433-35.433h744.095c19.438 0 35.433 15.995 35.433 35.433v50.197c0 19.438-15.995 35.433-35.433 35.433z" stroke="#0f0"/><path d="m3150 1469.88c0 12.959-10.663 23.622-23.622 23.622h-144.685c-12.959 0-23.622-10.663-23.622-23.622v-144.685c0-12.959 10.663-23.622 23.622-23.622h144.685c12.959 0 23.622 10.663 23.622 23.622z" stroke="#0f0"/><path d="m2780.91 1469.88c0 12.959-10.663 23.622-23.622 23.622h-144.685c-12.958 0-23.622-10.663-23.622-23.622v-144.685c0-12.959 10.664-23.622 23.622-23.622h144.685c12.959 0 23.622 10.663 23.622 23.622z" stroke="#0f0"/><path d="m2614.08 1397.54c0-39.112 31.754-70.866 70.866-70.866s70.866 31.754 70.866 70.866-31.754 70.866-70.866 70.866-70.866-31.754-70.866-70.866z" stroke="#0f0"/><path d="m2983.17 1397.54c0-39.112 31.754-70.866 70.866-70.866 39.113 0 70.867 31.754 70.867 70.866s-31.754 70.866-70.867 70.866c-39.112 0-70.866-31.754-70.866-70.866z" stroke="#0f0"/><path d="m3126.38 689.158c12.959 0 23.622-10.663 23.622-23.622v-144.685c0-12.959-10.663-23.622-23.622-23.622h-838.583c-12.958 0-23.622 10.663-23.622 23.622v144.685c0 12.959 10.664 23.622 23.622 23.622z" stroke="#0f0"/><path d="m2335.04 653.725h744.095c19.438 0 35.433-15.995 35.433-35.433v-50.197c0-19.438-15.995-35.433-35.433-35.433h-744.095c-19.438 0-35.433 15.995-35.433 35.433v50.197c0 19.438 15.995 35.433 35.433 35.433z" stroke="#0f0"/><path d="m2264.17 1817.11c0 12.959 10.664 23.622 23.622 23.622h144.685c12.959 0 23.622-10.663 23.622-23.622v-144.685c0-12.959-10.663-23.622-23.622-23.622h-144.685c-12.958 0-23.622 10.663-23.622 23.622z" stroke="#0f0"/><path d="m2633.27 1817.11c0 12.959 10.663 23.622 23.622 23.622h144.685c12.958 0 23.622-10.663 23.622-23.622v-144.685c0-12.959-10.664-23.622-23.622-23.622h-144.685c-12.959 0-23.622 10.663-23.622 23.622z" stroke="#0f0"/><path d="m2800.1 1744.77c0-39.112-31.754-70.866-70.866-70.866s-70.866 31.754-70.866 70.866 31.754 70.866 70.866 70.866 70.866-31.754 70.866-70.866z" stroke="#0f0"/><path d="m2431 1744.77c0-39.112-31.754-70.866-70.866-70.866s-70.866 31.754-70.866 70.866 31.754 70.866 70.866 70.866 70.866-31.754 70.866-70.866z" stroke="#0f0"/></g></g></svg>