<?xml version="1.0" encoding="UTF-8" standalone="no"?>
<!-- Created by SaveAsSVG AddIn Version 1.382 for Fusion 360 (https://icarussoftlandings.com/app/product/saveassvg/) -->
<svg xmlns="http://www.w3.org/2000/svg"
  version="1.1"
  id="svg2"
  viewBox="0 0 668.976378 1163.8582677">
  <g>
    <!-- Perimeter -->
      <path
        fill="none"
        style="stroke:rgb(0,0,255);stroke-width:0.756;vector-effect:non-scaling-stroke"
        transform="matrix(1,0,0,-1,-850.35591,1133.8204676999999)"
        d="M 1321.79326 967.59765 L 1353.18983,955.03903 A 7.55906 7.55906,0,0, 1, 1356.8555 954.54727 L 1480.54334,968.68302 A 7.55906 7.55906,0,0, 1, 1487.24409 976.19319 L 1487.24409,1008.05878 A 7.55906 7.55906,0,0, 1, 1480.54334 1015.56895 L 1356.8555,1029.7047 A 7.55906 7.55906,0,0, 1, 1353.18983 1029.21294 L 1321.79326,1016.65431 A 7.55906 7.55906,0,0, 0, 1313.64084 1018.32766 L 1312.92729,1019.04121 A 11.33858 11.33858,0,0, 1, 1304.9097 1022.3622 L 1238.71234,1022.3622 A 11.33858 11.33858,0,0, 1, 1230.69475 1019.04121 L 1231.80175,1020.14821 A 7.55906 7.55906,0,0, 0, 1221.11163 1020.14821 L 1213.55258,1027.70726 A 7.55906 7.55906,0,0, 1, 1208.20752 1029.92126 L 925.33579,1029.92126 A 7.55906 7.55906,0,0, 1, 919.99073 1027.70726 L 913.08014,1020.79667 A 7.55906 7.55906,0,0, 0, 907.73508 1018.58268 L 890.07874,1018.58268 A 7.55906 7.55906,0,0, 1, 882.51969 1011.02362 L 882.51969,973.22835 A 7.55906 7.55906,0,0, 1, 890.07874 965.66929 L 907.73508,965.66929 A 7.55906 7.55906,0,0, 0, 913.08014 963.4553 L 919.99073,956.5447 A 7.55906 7.55906,0,0, 1, 925.33579 954.33071 L 1208.20752,954.33071 A 7.55906 7.55906,0,0, 1, 1213.55258 956.5447 L 1221.11163,964.10376 A 7.55906 7.55906,0,0, 0, 1231.80175 964.10376 L 1230.69475,965.21076 A 11.33858 11.33858,0,0, 1, 1238.71234 961.88976 L 1304.9097,961.88976 A 11.33858 11.33858,0,0, 1, 1312.92729 965.21076 L 1313.64084,965.92431 A 7.55906 7.55906,0,0, 0, 1321.79326 967.59765  " />
      <path
        fill="none"
        style="stroke:rgb(0,0,255);stroke-width:0.756;vector-effect:non-scaling-stroke"
        transform="matrix(1,0,0,-1,-850.35591,1133.8204676999999)"
        d="M 1137.96203 831.8203 A 7.55906 7.55906,0,0, 0, 1148.65215 831.8203 L 1156.2112,824.26124 A 7.55906 7.55906,0,0, 1, 1161.55626 822.04724 L 1444.42799,822.04724 A 7.55906 7.55906,0,0, 1, 1449.77305 824.26124 L 1456.68364,831.17183 A 7.55906 7.55906,0,0, 0, 1462.0287 833.38583 L 1479.68504,833.38583 A 7.55906 7.55906,0,0, 1, 1487.24409 840.94488 L 1487.24409,878.74016 A 7.55906 7.55906,0,0, 1, 1479.68504 886.29921 L 1462.0287,886.29921 A 7.55906 7.55906,0,0, 0, 1456.68364 888.51321 L 1449.77305,895.4238 A 7.55906 7.55906,0,0, 1, 1444.42799 897.6378 L 1161.55626,897.6378 A 7.55906 7.55906,0,0, 1, 1156.2112 895.4238 L 1148.65215,887.86474 A 7.55906 7.55906,0,0, 0, 1137.96203 887.86474 L 1139.06903,886.75775 A 11.33858 11.33858,0,0, 1, 1131.05144 890.07874 L 1064.85408,890.07874 A 11.33858 11.33858,0,0, 1, 1056.83649 886.75775 L 1056.12294,886.0442 A 7.55906 7.55906,0,0, 0, 1047.97051 884.37085 L 1016.57395,896.92948 A 7.55906 7.55906,0,0, 1, 1012.90828 897.42124 L 889.22044,883.28549 A 7.55906 7.55906,0,0, 1, 882.51969 875.77532 L 882.51969,843.90972 A 7.55906 7.55906,0,0, 1, 889.22044 836.39955 L 1012.90828,822.2638 A 7.55906 7.55906,0,0, 1, 1016.57395 822.75556 L 1047.97051,835.31419 A 7.55906 7.55906,0,0, 0, 1056.12294 833.64084 L 1056.83649,832.92729 A 11.33858 11.33858,0,0, 1, 1064.85408 829.6063 L 1131.05144,829.6063 A 11.33858 11.33858,0,0, 1, 1139.06903 832.92729 Z  " />
      <path
        fill="none"
        style="stroke:rgb(0,0,255);stroke-width:0.756;vector-effect:non-scaling-stroke"
        transform="matrix(1,0,0,-1,-850.35591,1133.8204676999999)"
        d="M 1487.24409 1133.85827 L 1487.24409,1058.26772 L 882.51969,1058.26772 L 882.51969,1133.85827 Z  " />
      <path
        fill="none"
        style="stroke:rgb(0,0,255);stroke-width:0.756;vector-effect:non-scaling-stroke"
        transform="matrix(1,0,0,-1,-850.35591,1133.8204676999999)"
        d="M 1298.26772 391.1811 A 7.55906 7.55906,0,0, 1, 1305.82677 383.62205 L 1498.58268,383.62205 A 7.55906 7.55906,0,0, 1, 1506.14173 391.1811 L 1506.14173,757.79528 A 7.55906 7.55906,0,0, 1, 1498.58268 765.35433 L 1305.82677,765.35433 A 7.55906 7.55906,0,0, 1, 1298.26772 757.79528 Z  " />
      <path
        fill="none"
        style="stroke:rgb(0,0,255);stroke-width:0.756;vector-effect:non-scaling-stroke"
        transform="matrix(1,0,0,-1,-850.35591,1133.8204676999999)"
        d="M 1090.3937 391.1811 A 7.55906 7.55906,0,0, 1, 1097.95276 383.62205 L 1271.81102,383.62205 A 7.55906 7.55906,0,0, 1, 1279.37008 391.1811 L 1279.37008,757.79528 A 7.55906 7.55906,0,0, 1, 1271.81102 765.35433 L 1097.95276,765.35433 A 7.55906 7.55906,0,0, 1, 1090.3937 757.79528 Z  " />
      <path
        fill="none"
        style="stroke:rgb(0,0,255);stroke-width:0.756;vector-effect:non-scaling-stroke"
        transform="matrix(1,0,0,-1,-850.35591,1133.8204676999999)"
        d="M 871.1811 765.35433 A 7.55906 7.55906,0,0, 1, 863.62205 757.79528 L 863.62205,621.73228 A 7.55906 7.55906,0,0, 1, 871.1811 614.17323 L 1063.93701,614.17323 A 7.55906 7.55906,0,0, 1, 1071.49606 621.73228 L 1071.49606,757.79528 A 7.55906 7.55906,0,0, 1, 1063.93701 765.35433 Z  " />
      <path
        fill="none"
        style="stroke:rgb(0,0,255);stroke-width:0.756;vector-effect:non-scaling-stroke"
        transform="matrix(1,0,0,-1,-850.35591,1133.8204676999999)"
        d="M 975.11811 595.27559 A 7.55906 7.55906,0,0, 1, 967.55906 587.71654 L 967.55906,391.1811 A 7.55906 7.55906,0,0, 1, 975.11811 383.62205 L 1063.93701,383.62205 A 7.55906 7.55906,0,0, 1, 1071.49606 391.1811 L 1071.49606,587.71654 A 7.55906 7.55906,0,0, 1, 1063.93701 595.27559 Z  " />
      <path
        fill="none"
        style="stroke:rgb(0,0,255);stroke-width:0.756;vector-effect:non-scaling-stroke"
        transform="matrix(1,0,0,-1,-850.35591,1133.8204676999999)"
        d="M 1271.81102 289.13386 A 7.55906 7.55906,0,0, 1, 1279.37008 296.69291 L 1279.37008,357.16535 A 7.55906 7.55906,0,0, 1, 1271.81102 364.72441 L 1097.95276,364.72441 A 7.55906 7.55906,0,0, 1, 1090.3937 357.16535 L 1090.3937,296.69291 A 7.55906 7.55906,0,0, 1, 1097.95276 289.13386 Z  " />
      <path
        fill="none"
        style="stroke:rgb(0,0,255);stroke-width:0.756;vector-effect:non-scaling-stroke"
        transform="matrix(1,0,0,-1,-850.35591,1133.8204676999999)"
        d="M 1298.26772 296.69291 A 7.55906 7.55906,0,0, 1, 1305.82677 289.13386 L 1479.68504,289.13386 A 7.55906 7.55906,0,0, 1, 1487.24409 296.69291 L 1487.24409,357.16535 A 7.55906 7.55906,0,0, 1, 1479.68504 364.72441 L 1305.82677,364.72441 A 7.55906 7.55906,0,0, 1, 1298.26772 357.16535 Z  " />
      <path
        fill="none"
        style="stroke:rgb(0,0,255);stroke-width:0.756;vector-effect:non-scaling-stroke"
        transform="matrix(1,0,0,-1,-850.35591,1133.8204676999999)"
        d="M 1063.93701 289.13386 A 7.55906 7.55906,0,0, 1, 1071.49606 296.69291 L 1071.49606,357.16535 A 7.55906 7.55906,0,0, 1, 1063.93701 364.72441 L 890.07874,364.72441 A 7.55906 7.55906,0,0, 1, 882.51969 357.16535 L 882.51969,296.69291 A 7.55906 7.55906,0,0, 1, 890.07874 289.13386 Z  " />
      <path
        fill="none"
        style="stroke:rgb(0,0,255);stroke-width:0.756;vector-effect:non-scaling-stroke"
        transform="matrix(1,0,0,-1,-850.35591,1133.8204676999999)"
        d="M 871.1811 557.48031 A 7.55906 7.55906,0,0, 1, 863.62205 549.92126 L 863.62205,542.3622 A 7.55906 7.55906,0,0, 1, 871.1811 534.80315 L 931.65354,534.80315 A 7.55906 7.55906,0,0, 1, 939.2126 542.3622 L 939.2126,549.92126 A 7.55906 7.55906,0,0, 1, 931.65354 557.48031 Z  " />
      <path
        fill="none"
        style="stroke:rgb(0,0,255);stroke-width:0.756;vector-effect:non-scaling-stroke"
        transform="matrix(1,0,0,-1,-850.35591,1133.8204676999999)"
        d="M 871.1811 519.68504 A 7.55906 7.55906,0,0, 1, 863.62205 512.12598 L 863.62205,504.56693 A 7.55906 7.55906,0,0, 1, 871.1811 497.00787 L 931.65354,497.00787 A 7.55906 7.55906,0,0, 1, 939.2126 504.56693 L 939.2126,512.12598 A 7.55906 7.55906,0,0, 1, 931.65354 519.68504 Z  " />
      <path
        fill="none"
        style="stroke:rgb(0,0,255);stroke-width:0.756;vector-effect:non-scaling-stroke"
        transform="matrix(1,0,0,-1,-850.35591,1133.8204676999999)"
        d="M 871.1811 481.88976 A 7.55906 7.55906,0,0, 1, 863.62205 474.33071 L 863.62205,466.77165 A 7.55906 7.55906,0,0, 1, 871.1811 459.2126 L 931.65354,459.2126 A 7.55906 7.55906,0,0, 1, 939.2126 466.77165 L 939.2126,474.33071 A 7.55906 7.55906,0,0, 1, 931.65354 481.88976 Z  " />
      <path
        fill="none"
        style="stroke:rgb(0,0,255);stroke-width:0.756;vector-effect:non-scaling-stroke"
        transform="matrix(1,0,0,-1,-850.35591,1133.8204676999999)"
        d="M 863.62205 391.1811 A 7.55906 7.55906,0,0, 1, 871.1811 383.62205 L 931.65354,383.62205 A 7.55906 7.55906,0,0, 1, 939.2126 391.1811 L 939.2126,398.74016 A 7.55906 7.55906,0,0, 1, 931.65354 406.29921 L 871.1811,406.29921 A 7.55906 7.55906,0,0, 1, 863.62205 398.74016 Z  " />
      <path
        fill="none"
        style="stroke:rgb(0,0,255);stroke-width:0.756;vector-effect:non-scaling-stroke"
        transform="matrix(1,0,0,-1,-850.35591,1133.8204676999999)"
        d="M 871.1811 444.09449 A 7.55906 7.55906,0,0, 1, 863.62205 436.53543 L 863.62205,428.97638 A 7.55906 7.55906,0,0, 1, 871.1811 421.41732 L 931.65354,421.41732 A 7.55906 7.55906,0,0, 1, 939.2126 428.97638 L 939.2126,436.53543 A 7.55906 7.55906,0,0, 1, 931.65354 444.09449 Z  " />
      <path
        fill="none"
        style="stroke:rgb(0,0,255);stroke-width:0.756;vector-effect:non-scaling-stroke"
        transform="matrix(1,0,0,-1,-850.35591,1133.8204676999999)"
        d="M 871.1811 595.27559 A 7.55906 7.55906,0,0, 1, 863.62205 587.71654 L 863.62205,580.15748 A 7.55906 7.55906,0,0, 1, 871.1811 572.59843 L 931.65354,572.59843 A 7.55906 7.55906,0,0, 1, 939.2126 580.15748 L 939.2126,587.71654 A 7.55906 7.55906,0,0, 1, 931.65354 595.27559 Z  " />
    <!-- Insets -->
      <path
        fill="none"
        style="stroke:rgb(255,0,0);stroke-width:0.756;vector-effect:non-scaling-stroke"
        transform="matrix(1,0,0,-1,-850.35591,1133.8204676999999)"
        d="M 1309.6063 757.79528 A 3.77953 3.77953,0,0, 1, 1305.82677 754.01575 L 1305.82677,394.96063 A 3.77953 3.77953,0,0, 1, 1309.6063 391.1811 L 1494.80315,391.1811 A 3.77953 3.77953,0,0, 1, 1498.58268 394.96063 L 1498.58268,754.01575 A 3.77953 3.77953,0,0, 1, 1494.80315 757.79528 Z  " />
      <path
        fill="none"
        style="stroke:rgb(255,0,0);stroke-width:0.756;vector-effect:non-scaling-stroke"
        transform="matrix(1,0,0,-1,-850.35591,1133.8204676999999)"
        d="M 1249.13386 394.96063 A 18.89764 18.89764,0,0, 1, 1268.0315 413.85827 L 1268.0315,549.92126 A 18.89764 18.89764,0,0, 1, 1249.13386 568.8189 L 1120.62992,568.8189 A 18.89764 18.89764,0,0, 1, 1101.73228 549.92126 L 1101.73228,413.85827 A 18.89764 18.89764,0,0, 1, 1120.62992 394.96063 Z  " />
      <path
        fill="none"
        style="stroke:rgb(255,0,0);stroke-width:0.756;vector-effect:non-scaling-stroke"
        transform="matrix(1,0,0,-1,-850.35591,1133.8204676999999)"
        d="M 1249.13386 580.15748 A 18.89764 18.89764,0,0, 1, 1268.0315 599.05512 L 1268.0315,735.11811 A 18.89764 18.89764,0,0, 1, 1249.13386 754.01575 L 1120.62992,754.01575 A 18.89764 18.89764,0,0, 1, 1101.73228 735.11811 L 1101.73228,599.05512 A 18.89764 18.89764,0,0, 1, 1120.62992 580.15748 Z  " />
      <path
        fill="none"
        style="stroke:rgb(255,0,0);stroke-width:0.756;vector-effect:non-scaling-stroke"
        transform="matrix(1,0,0,-1,-850.35591,1133.8204676999999)"
        d="M 874.96063 757.79528 A 3.77953 3.77953,0,0, 1, 871.1811 754.01575 L 871.1811,625.51181 A 3.77953 3.77953,0,0, 1, 874.96063 621.73228 L 1060.15748,621.73228 A 3.77953 3.77953,0,0, 1, 1063.93701 625.51181 L 1063.93701,754.01575 A 3.77953 3.77953,0,0, 1, 1060.15748 757.79528 Z  " />
      <path
        fill="none"
        style="stroke:rgb(255,0,0);stroke-width:0.756;vector-effect:non-scaling-stroke"
        transform="matrix(1,0,0,-1,-850.35591,1133.8204676999999)"
        d="M 978.89764 587.71654 A 3.77953 3.77953,0,0, 1, 975.11811 583.93701 L 975.11811,394.96063 A 3.77953 3.77953,0,0, 1, 978.89764 391.1811 L 1060.15748,391.1811 A 3.77953 3.77953,0,0, 1, 1063.93701 394.96063 L 1063.93701,583.93701 A 3.77953 3.77953,0,0, 1, 1060.15748 587.71654 Z  " />
      <path
        fill="none"
        style="stroke:rgb(255,0,0);stroke-width:0.756;vector-effect:non-scaling-stroke"
        transform="matrix(1,0,0,-1,-850.35591,1133.8204676999999)"
        d="M 1305.82677 300.47244 A 3.77953 3.77953,0,0, 1, 1309.6063 296.69291 L 1475.90551,296.69291 A 3.77953 3.77953,0,0, 1, 1479.68504 300.47244 L 1479.68504,353.38583 A 3.77953 3.77953,0,0, 1, 1475.90551 357.16535 L 1309.6063,357.16535 A 3.77953 3.77953,0,0, 1, 1305.82677 353.38583 Z  " />
      <path
        fill="none"
        style="stroke:rgb(255,0,0);stroke-width:0.756;vector-effect:non-scaling-stroke"
        transform="matrix(1,0,0,-1,-850.35591,1133.8204676999999)"
        d="M 1097.95276 300.47244 A 3.77953 3.77953,0,0, 1, 1101.73228 296.69291 L 1268.0315,296.69291 A 3.77953 3.77953,0,0, 1, 1271.81102 300.47244 L 1271.81102,353.38583 A 3.77953 3.77953,0,0, 1, 1268.0315 357.16535 L 1101.73228,357.16535 A 3.77953 3.77953,0,0, 1, 1097.95276 353.38583 Z  " />
      <path
        fill="none"
        style="stroke:rgb(255,0,0);stroke-width:0.756;vector-effect:non-scaling-stroke"
        transform="matrix(1,0,0,-1,-850.35591,1133.8204676999999)"
        d="M 890.07874 300.47244 A 3.77953 3.77953,0,0, 1, 893.85827 296.69291 L 1060.15748,296.69291 A 3.77953 3.77953,0,0, 1, 1063.93701 300.47244 L 1063.93701,353.38583 A 3.77953 3.77953,0,0, 1, 1060.15748 357.16535 L 893.85827,357.16535 A 3.77953 3.77953,0,0, 1, 890.07874 353.38583 Z  " />
      <path
        fill="none"
        style="stroke:rgb(255,0,0);stroke-width:0.756;vector-effect:non-scaling-stroke"
        transform="matrix(1,0,0,-1,-850.35591,1133.8204676999999)"
        d="M 1252.91339 704.88189 A 100.69741 100.69741,0,0, 1, 1116.85039 704.88189  " />
      <path
        fill="none"
        style="stroke:rgb(255,0,0);stroke-width:0.756;vector-effect:non-scaling-stroke"
        transform="matrix(1,0,0,-1,-850.35591,1133.8204676999999)"
        d="M 1252.91339 731.33858 L 1252.91339,602.83465  " />
      <path
        fill="none"
        style="stroke:rgb(255,0,0);stroke-width:0.756;vector-effect:non-scaling-stroke"
        transform="matrix(1,0,0,-1,-850.35591,1133.8204676999999)"
        d="M 1252.91339 731.33858 A 7.55906 7.55906,0,0, 1, 1245.35433 738.89764 L 1124.40945,738.89764 A 7.55906 7.55906,0,0, 1, 1116.85039 731.33858 L 1116.85039,602.83465  " />
      <path
        fill="none"
        style="stroke:rgb(255,0,0);stroke-width:0.756;vector-effect:non-scaling-stroke"
        transform="matrix(1,0,0,-1,-850.35591,1133.8204676999999)"
        d="M 1252.91339 670.86614 A 100.69741 100.69741,0,0, 1, 1116.85039 670.86614  " />
      <path
        fill="none"
        style="stroke:rgb(255,0,0);stroke-width:0.756;vector-effect:non-scaling-stroke"
        transform="matrix(1,0,0,-1,-850.35591,1133.8204676999999)"
        d="M 1252.91339 731.33858 L 1252.91339,602.83465  " />
      <path
        fill="none"
        style="stroke:rgb(255,0,0);stroke-width:0.756;vector-effect:non-scaling-stroke"
        transform="matrix(1,0,0,-1,-850.35591,1133.8204676999999)"
        d="M 1116.85039 704.88189 L 1252.91339,704.88189  " />
      <path
        fill="none"
        style="stroke:rgb(255,0,0);stroke-width:0.756;vector-effect:non-scaling-stroke"
        transform="matrix(1,0,0,-1,-850.35591,1133.8204676999999)"
        d="M 1116.85039 602.83465 L 1116.85039,731.33858  " />
      <path
        fill="none"
        style="stroke:rgb(255,0,0);stroke-width:0.756;vector-effect:non-scaling-stroke"
        transform="matrix(1,0,0,-1,-850.35591,1133.8204676999999)"
        d="M 1252.91339 636.85039 A 100.69741 100.69741,0,0, 1, 1116.85039 636.85039  " />
      <path
        fill="none"
        style="stroke:rgb(255,0,0);stroke-width:0.756;vector-effect:non-scaling-stroke"
        transform="matrix(1,0,0,-1,-850.35591,1133.8204676999999)"
        d="M 1252.91339 731.33858 L 1252.91339,602.83465  " />
      <path
        fill="none"
        style="stroke:rgb(255,0,0);stroke-width:0.756;vector-effect:non-scaling-stroke"
        transform="matrix(1,0,0,-1,-850.35591,1133.8204676999999)"
        d="M 1116.85039 670.86614 L 1252.91339,670.86614  " />
      <path
        fill="none"
        style="stroke:rgb(255,0,0);stroke-width:0.756;vector-effect:non-scaling-stroke"
        transform="matrix(1,0,0,-1,-850.35591,1133.8204676999999)"
        d="M 1116.85039 602.83465 L 1116.85039,731.33858  " />
      <path
        fill="none"
        style="stroke:rgb(255,0,0);stroke-width:0.756;vector-effect:non-scaling-stroke"
        transform="matrix(1,0,0,-1,-850.35591,1133.8204676999999)"
        d="M 1252.91339 602.83465 A 100.69741 100.69741,0,0, 1, 1116.85039 602.83465 L 1116.85039,731.33858  " />
      <path
        fill="none"
        style="stroke:rgb(255,0,0);stroke-width:0.756;vector-effect:non-scaling-stroke"
        transform="matrix(1,0,0,-1,-850.35591,1133.8204676999999)"
        d="M 1252.91339 731.33858 L 1252.91339,602.83465  " />
      <path
        fill="none"
        style="stroke:rgb(255,0,0);stroke-width:0.756;vector-effect:non-scaling-stroke"
        transform="matrix(1,0,0,-1,-850.35591,1133.8204676999999)"
        d="M 1116.85039 636.85039 L 1252.91339,636.85039  " />
      <path
        fill="none"
        style="stroke:rgb(255,0,0);stroke-width:0.756;vector-effect:non-scaling-stroke"
        transform="matrix(1,0,0,-1,-850.35591,1133.8204676999999)"
        d="M 871.1811 551.81102 A 1.88976 1.88976,0,0, 1, 869.29134 549.92126 L 869.29134,542.3622 A 1.88976 1.88976,0,0, 1, 871.1811 540.47244 L 931.65354,540.47244 A 1.88976 1.88976,0,0, 1, 933.54331 542.3622 L 933.54331,549.92126 A 1.88976 1.88976,0,0, 1, 931.65354 551.81102 Z  " />
      <path
        fill="none"
        style="stroke:rgb(255,0,0);stroke-width:0.756;vector-effect:non-scaling-stroke"
        transform="matrix(1,0,0,-1,-850.35591,1133.8204676999999)"
        d="M 869.29134 504.56693 A 1.88976 1.88976,0,0, 1, 871.1811 502.67717 L 931.65354,502.67717 A 1.88976 1.88976,0,0, 1, 933.54331 504.56693 L 933.54331,512.12598 A 1.88976 1.88976,0,0, 1, 931.65354 514.01575 L 871.1811,514.01575 A 1.88976 1.88976,0,0, 1, 869.29134 512.12598 Z  " />
      <path
        fill="none"
        style="stroke:rgb(255,0,0);stroke-width:0.756;vector-effect:non-scaling-stroke"
        transform="matrix(1,0,0,-1,-850.35591,1133.8204676999999)"
        d="M 869.29134 466.77165 A 1.88976 1.88976,0,0, 1, 871.1811 464.88189 L 931.65354,464.88189 A 1.88976 1.88976,0,0, 1, 933.54331 466.77165 L 933.54331,474.33071 A 1.88976 1.88976,0,0, 1, 931.65354 476.22047 L 871.1811,476.22047 A 1.88976 1.88976,0,0, 1, 869.29134 474.33071 Z  " />
      <path
        fill="none"
        style="stroke:rgb(255,0,0);stroke-width:0.756;vector-effect:non-scaling-stroke"
        transform="matrix(1,0,0,-1,-850.35591,1133.8204676999999)"
        d="M 869.29134 391.1811 A 1.88976 1.88976,0,0, 1, 871.1811 389.29134 L 931.65354,389.29134 A 1.88976 1.88976,0,0, 1, 933.54331 391.1811 L 933.54331,398.74016 A 1.88976 1.88976,0,0, 1, 931.65354 400.62992 L 871.1811,400.62992 A 1.88976 1.88976,0,0, 1, 869.29134 398.74016 Z  " />
      <path
        fill="none"
        style="stroke:rgb(255,0,0);stroke-width:0.756;vector-effect:non-scaling-stroke"
        transform="matrix(1,0,0,-1,-850.35591,1133.8204676999999)"
        d="M 869.29134 428.97638 A 1.88976 1.88976,0,0, 1, 871.1811 427.08661 L 931.65354,427.08661 A 1.88976 1.88976,0,0, 1, 933.54331 428.97638 L 933.54331,436.53543 A 1.88976 1.88976,0,0, 1, 931.65354 438.4252 L 871.1811,438.4252 A 1.88976 1.88976,0,0, 1, 869.29134 436.53543 Z  " />
      <path
        fill="none"
        style="stroke:rgb(255,0,0);stroke-width:0.756;vector-effect:non-scaling-stroke"
        transform="matrix(1,0,0,-1,-850.35591,1133.8204676999999)"
        d="M 869.29134 580.15748 A 1.88976 1.88976,0,0, 1, 871.1811 578.26772 L 931.65354,578.26772 A 1.88976 1.88976,0,0, 1, 933.54331 580.15748 L 933.54331,587.71654 A 1.88976 1.88976,0,0, 1, 931.65354 589.6063 L 871.1811,589.6063 A 1.88976 1.88976,0,0, 1, 869.29134 587.71654 Z  " />
      <path
        fill="none"
        style="stroke:rgb(255,0,0);stroke-width:0.756;vector-effect:non-scaling-stroke"
        transform="matrix(1,0,0,-1,-850.35591,1133.8204676999999)"
        d="M 1519.37008 1133.85827 L 850.3937,1133.85827  " />
      <path
        fill="none"
        style="stroke:rgb(255,0,0);stroke-width:0.756;vector-effect:non-scaling-stroke"
        transform="matrix(1,0,0,-1,-850.35591,1133.8204676999999)"
        d="M 850.3937 1133.85827 L 850.3937,222.99213  " />
      <path
        fill="none"
        style="stroke:rgb(255,0,0);stroke-width:0.756;vector-effect:non-scaling-stroke"
        transform="matrix(1,0,0,-1,-850.35591,1133.8204676999999)"
        d="M 882.51969 1018.58268 L 907.73508,1018.58268  " />
      <path
        fill="none"
        style="stroke:rgb(255,0,0);stroke-width:0.756;vector-effect:non-scaling-stroke"
        transform="matrix(1,0,0,-1,-850.35591,1133.8204676999999)"
        d="M 1356.8555 1029.7047 L 1487.24409,1014.80315  " />
    <!-- Cutouts -->
      <path
        fill="none"
        style="stroke:rgb(0,255,0);stroke-width:0.756;vector-effect:non-scaling-stroke"
        transform="matrix(1,0,0,-1,-850.35591,1133.8204676999999)"
        d="M 1332.28346 746.45669 A 15.11811 15.11811,0,0, 1, 1317.16535 731.33858 L 1317.16535,417.6378 A 15.11811 15.11811,0,0, 1, 1332.28346 402.51969 L 1472.12598,402.51969 A 15.11811 15.11811,0,0, 1, 1487.24409 417.6378 L 1487.24409,731.33858 A 15.11811 15.11811,0,0, 1, 1472.12598 746.45669 Z  " />
      <path
        fill="none"
        style="stroke:rgb(0,255,0);stroke-width:0.756;vector-effect:non-scaling-stroke"
        transform="matrix(1,0,0,-1,-850.35591,1133.8204676999999)"
        d="M 1332.28346 738.89764 A 7.55906 7.55906,0,0, 1, 1324.72441 731.33858 L 1324.72441,417.6378 A 7.55906 7.55906,0,0, 1, 1332.28346 410.07874 L 1472.12598,410.07874 A 7.55906 7.55906,0,0, 1, 1479.68504 417.6378 L 1479.68504,731.33858 A 7.55906 7.55906,0,0, 1, 1472.12598 738.89764 Z  " />
      <path
        fill="none"
        style="stroke:rgb(0,255,0);stroke-width:0.756;vector-effect:non-scaling-stroke"
        transform="matrix(1,0,0,-1,-850.35591,1133.8204676999999)"
        d="M 1120.62992 565.03937 A 15.11811 15.11811,0,0, 1, 1105.51181 549.92126 L 1105.51181,413.85827 A 15.11811 15.11811,0,0, 1, 1120.62992 398.74016 L 1249.13386,398.74016 A 15.11811 15.11811,0,0, 1, 1264.25197 413.85827 L 1264.25197,549.92126 A 15.11811 15.11811,0,0, 1, 1249.13386 565.03937 Z  " />
      <path
        fill="none"
        style="stroke:rgb(0,255,0);stroke-width:0.756;vector-effect:non-scaling-stroke"
        transform="matrix(1,0,0,-1,-850.35591,1133.8204676999999)"
        d="M 1264.25197 735.11811 A 15.11811 15.11811,0,0, 1, 1249.13386 750.23622 L 1120.62992,750.23622 A 15.11811 15.11811,0,0, 1, 1105.51181 735.11811 L 1105.51181,599.05512 A 15.11811 15.11811,0,0, 1, 1120.62992 583.93701 L 1249.13386,583.93701 A 15.11811 15.11811,0,0, 1, 1264.25197 599.05512 Z  " />
      <path
        fill="none"
        style="stroke:rgb(0,255,0);stroke-width:0.756;vector-effect:non-scaling-stroke"
        transform="matrix(1,0,0,-1,-850.35591,1133.8204676999999)"
        d="M 897.6378 746.45669 A 15.11811 15.11811,0,0, 1, 882.51969 731.33858 L 882.51969,648.18898 A 15.11811 15.11811,0,0, 1, 897.6378 633.07087 L 1037.48031,633.07087 A 15.11811 15.11811,0,0, 1, 1052.59843 648.18898 L 1052.59843,731.33858 A 15.11811 15.11811,0,0, 1, 1037.48031 746.45669 Z  " />
      <path
        fill="none"
        style="stroke:rgb(0,255,0);stroke-width:0.756;vector-effect:non-scaling-stroke"
        transform="matrix(1,0,0,-1,-850.35591,1133.8204676999999)"
        d="M 1001.5748 576.37795 A 15.11811 15.11811,0,0, 1, 986.45669 561.25984 L 986.45669,417.6378 A 15.11811 15.11811,0,0, 1, 1001.5748 402.51969 L 1037.48031,402.51969 A 15.11811 15.11811,0,0, 1, 1052.59843 417.6378 L 1052.59843,561.25984 A 15.11811 15.11811,0,0, 1, 1037.48031 576.37795 Z  " />
      <path
        fill="none"
        style="stroke:rgb(0,255,0);stroke-width:0.756;vector-effect:non-scaling-stroke"
        transform="matrix(1,0,0,-1,-850.35591,1133.8204676999999)"
        d="M 897.6378 738.89764 A 7.55906 7.55906,0,0, 1, 890.07874 731.33858 L 890.07874,648.18898 A 7.55906 7.55906,0,0, 1, 897.6378 640.62992 L 1037.48031,640.62992 A 7.55906 7.55906,0,0, 1, 1045.03937 648.18898 L 1045.03937,731.33858 A 7.55906 7.55906,0,0, 1, 1037.48031 738.89764 Z  " />
      <path
        fill="none"
        style="stroke:rgb(0,255,0);stroke-width:0.756;vector-effect:non-scaling-stroke"
        transform="matrix(1,0,0,-1,-850.35591,1133.8204676999999)"
        d="M 1045.03937 561.25984 A 7.55906 7.55906,0,0, 1, 1037.48031 568.8189 L 1001.5748,568.8189 A 7.55906 7.55906,0,0, 1, 994.01575 561.25984 L 994.01575,417.6378 A 7.55906 7.55906,0,0, 1, 1001.5748 410.07874 L 1037.48031,410.07874 A 7.55906 7.55906,0,0, 1, 1045.03937 417.6378 Z  " />
      <path
        fill="none"
        style="stroke:rgb(0,255,0);stroke-width:0.756;vector-effect:non-scaling-stroke"
        transform="matrix(1,0,0,-1,-850.35591,1133.8204676999999)"
        d="M 1116.85039 704.88189 L 1252.91339,704.88189 A 100.69741 100.69741,0,0, 1, 1116.85039 704.88189  " />
      <path
        fill="none"
        style="stroke:rgb(0,255,0);stroke-width:0.756;vector-effect:non-scaling-stroke"
        transform="matrix(1,0,0,-1,-850.35591,1133.8204676999999)"
        d="M 1116.85039 670.86614 L 1252.91339,670.86614 A 100.69741 100.69741,0,0, 1, 1116.85039 670.86614  " />
      <path
        fill="none"
        style="stroke:rgb(0,255,0);stroke-width:0.756;vector-effect:non-scaling-stroke"
        transform="matrix(1,0,0,-1,-850.35591,1133.8204676999999)"
        d="M 1116.85039 636.85039 L 1252.91339,636.85039 A 100.69741 100.69741,0,0, 1, 1116.85039 636.85039  " />
      <path
        fill="none"
        style="stroke:rgb(0,255,0);stroke-width:0.756;vector-effect:non-scaling-stroke"
        transform="matrix(1,0,0,-1,-850.35591,1133.8204676999999)"
        d="M 1116.85039 602.83465 L 1252.91339,602.83465 A 100.69741 100.69741,0,0, 1, 1116.85039 602.83465  " />
      <path
        fill="none"
        style="stroke:rgb(0,255,0);stroke-width:0.756;vector-effect:non-scaling-stroke"
        transform="matrix(1,0,0,-1,-850.35591,1133.8204676999999)"
        d="M 1124.40945 553.70079 A 7.55906 7.55906,0,0, 1, 1116.85039 546.14173 L 1116.85039,417.6378 A 7.55906 7.55906,0,0, 1, 1124.40945 410.07874 L 1245.35433,410.07874  " />
      <path
        fill="none"
        style="stroke:rgb(0,255,0);stroke-width:0.756;vector-effect:non-scaling-stroke"
        transform="matrix(1,0,0,-1,-850.35591,1133.8204676999999)"
        d="M 1154.64567 553.70079 L 1154.64567,410.07874 Z  " />
      <path
        fill="none"
        style="stroke:rgb(0,255,0);stroke-width:0.756;vector-effect:non-scaling-stroke"
        transform="matrix(1,0,0,-1,-850.35591,1133.8204676999999)"
        d="M 1154.64567 553.70079 L 1154.64567,410.07874 Z  " />
      <path
        fill="none"
        style="stroke:rgb(0,255,0);stroke-width:0.756;vector-effect:non-scaling-stroke"
        transform="matrix(1,0,0,-1,-850.35591,1133.8204676999999)"
        d="M 1154.64567 553.70079 L 1154.64567,410.07874  " />
      <path
        fill="none"
        style="stroke:rgb(0,255,0);stroke-width:0.756;vector-effect:non-scaling-stroke"
        transform="matrix(1,0,0,-1,-850.35591,1133.8204676999999)"
        d="M 1124.40945 553.70079 L 1245.35433,553.70079  " />
      <path
        fill="none"
        style="stroke:rgb(0,255,0);stroke-width:0.756;vector-effect:non-scaling-stroke"
        transform="matrix(1,0,0,-1,-850.35591,1133.8204676999999)"
        d="M 1215.11811 553.70079 L 1215.11811,410.07874 Z  " />
      <path
        fill="none"
        style="stroke:rgb(0,255,0);stroke-width:0.756;vector-effect:non-scaling-stroke"
        transform="matrix(1,0,0,-1,-850.35591,1133.8204676999999)"
        d="M 1215.11811 553.70079 L 1215.11811,410.07874 Z  " />
      <path
        fill="none"
        style="stroke:rgb(0,255,0);stroke-width:0.756;vector-effect:non-scaling-stroke"
        transform="matrix(1,0,0,-1,-850.35591,1133.8204676999999)"
        d="M 1215.11811 553.70079 L 1215.11811,410.07874  " />
      <path
        fill="none"
        style="stroke:rgb(0,255,0);stroke-width:0.756;vector-effect:non-scaling-stroke"
        transform="matrix(1,0,0,-1,-850.35591,1133.8204676999999)"
        d="M 1245.35433 410.07874 L 1124.40945,410.07874  " />
      <path
        fill="none"
        style="stroke:rgb(0,255,0);stroke-width:0.756;vector-effect:non-scaling-stroke"
        transform="matrix(1,0,0,-1,-850.35591,1133.8204676999999)"
        d="M 1245.35433 410.07874 A 7.55906 7.55906,0,0, 1, 1252.91339 417.6378 L 1252.91339,546.14173 A 7.55906 7.55906,0,0, 1, 1245.35433 553.70079 L 1124.40945,553.70079  " />
      <path
        fill="none"
        style="stroke:rgb(0,255,0);stroke-width:0.756;vector-effect:non-scaling-stroke"
        transform="matrix(1,0,0,-1,-850.35591,1133.8204676999999)"
        d="M 1245.35433 595.27559 A 7.55906 7.55906,0,0, 1, 1252.91339 602.83465 L 1116.85039,602.83465 A 7.55906 7.55906,0,0, 1, 1124.40945 595.27559 Z  " />
      <path
        fill="none"
        style="stroke:rgb(0,255,0);stroke-width:0.756;vector-effect:non-scaling-stroke"
        transform="matrix(1,0,0,-1,-850.35591,1133.8204676999999)"
        d="M 1215.11811 417.6378 A 30.50619 30.50619,0,0, 1, 1154.64567 417.6378  " />
      <path
        fill="none"
        style="stroke:rgb(0,255,0);stroke-width:0.756;vector-effect:non-scaling-stroke"
        transform="matrix(1,0,0,-1,-850.35591,1133.8204676999999)"
        d="M 1215.11811 553.70079 L 1215.11811,410.07874  " />
      <path
        fill="none"
        style="stroke:rgb(0,255,0);stroke-width:0.756;vector-effect:non-scaling-stroke"
        transform="matrix(1,0,0,-1,-850.35591,1133.8204676999999)"
        d="M 1154.64567 451.65354 L 1215.11811,451.65354  " />
      <path
        fill="none"
        style="stroke:rgb(0,255,0);stroke-width:0.756;vector-effect:non-scaling-stroke"
        transform="matrix(1,0,0,-1,-850.35591,1133.8204676999999)"
        d="M 1154.64567 553.70079 L 1154.64567,410.07874  " />
      <path
        fill="none"
        style="stroke:rgb(0,255,0);stroke-width:0.756;vector-effect:non-scaling-stroke"
        transform="matrix(1,0,0,-1,-850.35591,1133.8204676999999)"
        d="M 1215.11811 451.65354 A 30.50619 30.50619,0,0, 1, 1154.64567 451.65354  " />
      <path
        fill="none"
        style="stroke:rgb(0,255,0);stroke-width:0.756;vector-effect:non-scaling-stroke"
        transform="matrix(1,0,0,-1,-850.35591,1133.8204676999999)"
        d="M 1215.11811 553.70079 L 1215.11811,410.07874  " />
      <path
        fill="none"
        style="stroke:rgb(0,255,0);stroke-width:0.756;vector-effect:non-scaling-stroke"
        transform="matrix(1,0,0,-1,-850.35591,1133.8204676999999)"
        d="M 1154.64567 485.66929 L 1215.11811,485.66929  " />
      <path
        fill="none"
        style="stroke:rgb(0,255,0);stroke-width:0.756;vector-effect:non-scaling-stroke"
        transform="matrix(1,0,0,-1,-850.35591,1133.8204676999999)"
        d="M 1154.64567 553.70079 L 1154.64567,410.07874  " />
      <path
        fill="none"
        style="stroke:rgb(0,255,0);stroke-width:0.756;vector-effect:non-scaling-stroke"
        transform="matrix(1,0,0,-1,-850.35591,1133.8204676999999)"
        d="M 1215.11811 485.66929 A 30.50619 30.50619,0,0, 1, 1154.64567 485.66929  " />
      <path
        fill="none"
        style="stroke:rgb(0,255,0);stroke-width:0.756;vector-effect:non-scaling-stroke"
        transform="matrix(1,0,0,-1,-850.35591,1133.8204676999999)"
        d="M 1215.11811 553.70079 L 1215.11811,410.07874  " />
      <path
        fill="none"
        style="stroke:rgb(0,255,0);stroke-width:0.756;vector-effect:non-scaling-stroke"
        transform="matrix(1,0,0,-1,-850.35591,1133.8204676999999)"
        d="M 1154.64567 519.68504 L 1215.11811,519.68504  " />
      <path
        fill="none"
        style="stroke:rgb(0,255,0);stroke-width:0.756;vector-effect:non-scaling-stroke"
        transform="matrix(1,0,0,-1,-850.35591,1133.8204676999999)"
        d="M 1154.64567 553.70079 L 1154.64567,410.07874  " />
      <path
        fill="none"
        style="stroke:rgb(0,255,0);stroke-width:0.756;vector-effect:non-scaling-stroke"
        transform="matrix(1,0,0,-1,-850.35591,1133.8204676999999)"
        d="M 1154.64567 553.70079 L 1154.64567,410.07874  " />
      <path
        fill="none"
        style="stroke:rgb(0,255,0);stroke-width:0.756;vector-effect:non-scaling-stroke"
        transform="matrix(1,0,0,-1,-850.35591,1133.8204676999999)"
        d="M 1215.11811 519.68504 A 30.50619 30.50619,0,0, 1, 1154.64567 519.68504  " />
      <path
        fill="none"
        style="stroke:rgb(0,255,0);stroke-width:0.756;vector-effect:non-scaling-stroke"
        transform="matrix(1,0,0,-1,-850.35591,1133.8204676999999)"
        d="M 1215.11811 553.70079 L 1215.11811,410.07874  " />
      <path
        fill="none"
        style="stroke:rgb(0,255,0);stroke-width:0.756;vector-effect:non-scaling-stroke"
        transform="matrix(1,0,0,-1,-850.35591,1133.8204676999999)"
        d="M 1124.40945 553.70079 L 1245.35433,553.70079  " />
      <path
        fill="none"
        style="stroke:rgb(0,255,0);stroke-width:0.756;vector-effect:non-scaling-stroke"
        transform="matrix(1,0,0,-1,-850.35591,1133.8204676999999)"
        d="M 1154.64567 451.65354 L 1215.11811,451.65354 A 30.50619 30.50619,0,0, 1, 1154.64567 451.65354  " />
      <path
        fill="none"
        style="stroke:rgb(0,255,0);stroke-width:0.756;vector-effect:non-scaling-stroke"
        transform="matrix(1,0,0,-1,-850.35591,1133.8204676999999)"
        d="M 1154.64567 485.66929 L 1215.11811,485.66929 A 30.50619 30.50619,0,0, 1, 1154.64567 485.66929  " />
      <path
        fill="none"
        style="stroke:rgb(0,255,0);stroke-width:0.756;vector-effect:non-scaling-stroke"
        transform="matrix(1,0,0,-1,-850.35591,1133.8204676999999)"
        d="M 1154.64567 417.6378 L 1215.11811,417.6378 A 30.50619 30.50619,0,0, 1, 1154.64567 417.6378  " />
      <path
        fill="none"
        style="stroke:rgb(0,255,0);stroke-width:0.756;vector-effect:non-scaling-stroke"
        transform="matrix(1,0,0,-1,-850.35591,1133.8204676999999)"
        d="M 1154.64567 519.68504 L 1215.11811,519.68504 A 30.50619 30.50619,0,0, 1, 1154.64567 519.68504  " />
      <path
        fill="none"
        style="stroke:rgb(0,255,0);stroke-width:0.756;vector-effect:non-scaling-stroke"
        transform="matrix(1,0,0,-1,-850.35591,1133.8204676999999)"
        d="M 1215.11811 553.70079 L 1215.11811,410.07874  " />
      <path
        fill="none"
        style="stroke:rgb(0,255,0);stroke-width:0.756;vector-effect:non-scaling-stroke"
        transform="matrix(1,0,0,-1,-850.35591,1133.8204676999999)"
        d="M 1154.64567 417.6378 L 1215.11811,417.6378  " />
      <path
        fill="none"
        style="stroke:rgb(0,255,0);stroke-width:0.756;vector-effect:non-scaling-stroke"
        transform="matrix(1,0,0,-1,-850.35591,1133.8204676999999)"
        d="M 1154.64567 553.70079 L 1154.64567,410.07874  " />
      <path
        fill="none"
        style="stroke:rgb(0,255,0);stroke-width:0.756;vector-effect:non-scaling-stroke"
        transform="matrix(1,0,0,-1,-850.35591,1133.8204676999999)"
        d="M 1245.35433 410.07874 L 1124.40945,410.07874  " />
  </g>
</svg>
