<svg viewBox="0 -15 472.4409449 1335.0708661" xmlns="http://www.w3.org/2000/svg"><g fill="none" stroke-width=".756" transform="matrix(1 0 0 -1 113.42335 1305.033066)"><g stroke="#00f"><path d="m-5.66902 965.1783 32.16768 18.57201a7.55906 7.55906 0 0 1 3.00798 9.87335 103.93701 103.93701 0 1 0 188.01554 2.88357 11.33858 11.33858 0 0 1 4.66023-14.49545l29.15645-16.83348a7.55906 7.55906 0 0 0 3.77952-6.54634v-307.31192a7.55906 7.55906 0 0 1 12.90412-5.34506l88.81889 88.8189a7.55906 7.55906 0 0 1 2.214 5.34506v299.23114a236.22047 236.22047 0 0 1 -472.44094 0v-299.23114a7.55906 7.55906 0 0 1 2.21399-5.34506l88.8189-88.8189a7.55906 7.55906 0 0 1 12.90411 5.34506v307.31192a7.55906 7.55906 0 0 0 3.77953 6.54634"/><path d="m35.90551 737.00787a7.55906 7.55906 0 0 1 -7.55905-7.55905v-458.40349a7.55906 7.55906 0 0 1 2.2138-5.39902l.45873-.45873a7.55906 7.55906 0 0 0 0-10.69012l-.45854-.45853a7.55906 7.55906 0 0 1 -2.21399-5.34506v-222.23718a7.55906 7.55906 0 0 1 9.35457-7.34271"/><path d="m35.90551 18.89764h173.85827a7.55906 7.55906 0 0 1 7.55905 7.55905v222.36071a7.55906 7.55906 0 0 1 -2.21399 5.34506l-.41612.41611a7.55906 7.55906 0 0 0 -.0811 10.60777l.57832.59628a7.55906 7.55906 0 0 1 2.13289 5.26271v458.40349a7.55906 7.55906 0 0 1 -7.55905 7.55905h-173.85827"/><path d="m267.16353 252.28715a7.55906 7.55906 0 0 1 7.55688 7.74034 7.55906 7.55906 0 0 1 -7.55679 7.37408h-41.73265a7.55906 7.55906 0 0 1 -7.55665-7.75001 7.55906 7.55906 0 0 1 7.55655-7.36441z"/><path d="m16.39922 252.28378a7.55906 7.55906 0 0 1 7.55896 7.59564 7.55906 7.55906 0 0 1 -7.55896 7.52215h-40.09498a7.55906 7.55906 0 0 1 -7.55887-7.50631 7.55906 7.55906 0 0 1 7.55887-7.61148z"/><circle cx="248.97638" cy="155.90551" r="7.55906"/><circle cx="-3.30709" cy="155.90551" r="7.55906"/><circle cx="248.97638" cy="354.33071" r="7.55906"/><circle cx="-3.30709" cy="344.88189" r="7.55906"/></g><path d="m124.72441 37.79528a7.55906 7.55906 0 0 1 7.55905 7.55905v428.97638a7.55906 7.55906 0 0 1 -7.55905 7.55905h-3.77953a7.55906 7.55906 0 0 1 -7.55905-7.55905v-428.97638a7.55906 7.55906 0 0 1 7.55905-7.55905z" stroke="#f00"/><path d="m276.37823 763.46457a7.55906 7.55906 0 0 1 7.55905-7.55906h46.29921a7.55906 7.55906 0 0 1 7.55906 7.55906v268.34645a7.55906 7.55906 0 0 1 -7.55906 7.55906h-46.29921a7.55906 7.55906 0 0 1 -7.55905-7.55906z" stroke="#f00"/><path d="m54.49214 961.06193a7.55906 7.55906 0 0 1 -10.31545-.35008l-13.61596-13.61596a7.55906 7.55906 0 0 1 -2.214-5.34506v-178.28626a7.55906 7.55906 0 0 1 7.55905-7.55906h173.85827a7.55906 7.55906 0 0 1 7.55906 7.55906v178.28621a7.55906 7.55906 0 0 1 -2.214 5.34505l-13.61599 13.616a7.55906 7.55906 0 0 1 -10.31544.35008 103.93701 103.93701 0 0 0 -136.68554.00002" stroke="#f00"/><circle cx="122.83492" cy="1039.37008" r="94.48819" stroke="#f00"/><path d="m94.48819 498.89764a7.55906 7.55906 0 0 1 7.55905-7.55906h41.57481a7.55906 7.55906 0 0 1 7.55905 7.55906v98.26771a7.55906 7.55906 0 0 1 -7.55905 7.55906h-41.57481a7.55906 7.55906 0 0 1 -7.55905-7.55906z" stroke="#f00"/><path d="m85.03937 621.73228a7.55906 7.55906 0 0 1 7.55906-7.55905h60.47244a7.55906 7.55906 0 0 1 7.55905 7.55905v41.57481a7.55906 7.55906 0 0 1 -7.55905 7.55905h-60.47244a7.55906 7.55906 0 0 1 -7.55906-7.55905z" stroke="#f00"/><path d="m-84.56666 1039.37008a7.55906 7.55906 0 0 1 -7.55905-7.55906v-46.29921a7.55906 7.55906 0 0 1 7.55905-7.55905h46.29922a7.55906 7.55906 0 0 1 7.55905 7.55905v46.29921a7.55906 7.55906 0 0 1 -7.55905 7.55906z" stroke="#f00"/><path d="m-84.56666 921.25984a7.55906 7.55906 0 0 1 -7.55905-7.55905v-46.29922a7.55906 7.55906 0 0 1 7.55905-7.55905h46.29922a7.55906 7.55906 0 0 1 7.55905 7.55905v46.29922a7.55906 7.55906 0 0 1 -7.55905 7.55905z" stroke="#f00"/><path d="m299.05539 1024.25197a7.55906 7.55906 0 0 1 -7.55905-7.55906v-238.11023a7.55906 7.55906 0 0 1 7.55905-7.55906h16.06299a7.55906 7.55906 0 0 1 7.55906 7.55906v238.11023a7.55906 7.55906 0 0 1 -7.55906 7.55906z" stroke="#0f0"/><circle cx="-61.41732" cy="890.55118" r="22.67717" stroke="#0f0"/><circle cx="-61.41732" cy="1008.66142" r="22.67717" stroke="#0f0"/></g></svg>