<svg clip-rule="evenodd" fill-rule="evenodd" viewBox="0 0 3300 2550" xmlns="http://www.w3.org/2000/svg"><g fill="none"><path d="m0 0h3300v2550h-3300z"/><g stroke-width="3.13"><path d="m2179.96 1289.76 58.037-100.524c6.178-10.7 19.76-14.838 30.854-9.4 44.498 21.811 93.402 33.152 142.958 33.152 178.182 0 324.803-146.621 324.803-324.803s-146.621-324.803-324.803-324.803c-46.195 0-91.863 9.855-133.946 28.905-16.514 7.475-36.235 1.135-45.299-14.563l-52.604-91.114c-4.215-7.299-12.029-11.811-20.458-11.811h-960.349c-12.959 0-23.622-10.663-23.622-23.622 0-6.262 2.49-12.275 6.918-16.703l277.559-277.559c4.429-4.429 10.441-6.919 16.704-6.919h935.097c404.959 0 738.189 333.23 738.189 738.189 0 404.958-333.23 738.189-738.189 738.189h-935.097c-6.263 0-12.275-2.49-16.704-6.919l-277.559-277.559c-4.428-4.428-6.918-10.441-6.918-16.703 0-12.959 10.663-23.622 23.622-23.622h960.349c8.429 0 16.243-4.512 20.458-11.811" stroke="#00f"/><path d="m2200.42 1301.58 58.038-100.524c47.733 23.397 100.194 35.563 153.354 35.563 191.14 0 348.425-157.285 348.425-348.425s-157.285-348.425-348.425-348.425c-49.554 0-98.544 10.572-143.688 31.007-5.504 2.492-12.078.379-15.099-4.854l-52.605-91.114c-8.429-14.599-24.057-23.622-40.915-23.622h-960.349l277.559-277.559h935.097c392 0 714.567 322.567 714.567 714.567s-322.567 714.567-714.567 714.567h-935.097l-277.559-277.559h960.349c16.858 0 32.486-9.023 40.915-23.622" stroke="#f00"/><path d="m2116.53 888.189c0-162.967 132.309-295.276 295.276-295.276s295.276 132.309 295.276 295.276-132.309 295.276-295.276 295.276-295.276-132.309-295.276-295.276z" stroke="#0f0"/><path d="m2364.57 337.5c0 12.959-10.663 23.622-23.622 23.622h-744.095c-12.958 0-23.622-10.663-23.622-23.622v-50.197c0-12.959 10.664-23.622 23.622-23.622h744.095c12.959 0 23.622 10.663 23.622 23.622z" stroke="#0f0"/><path d="m1887.7 1463.98c0-32.593 26.462-59.055 59.055-59.055s59.055 26.462 59.055 59.055c0 32.594-26.462 59.055-59.055 59.055s-59.055-26.461-59.055-59.055z" stroke="#0f0"/><path d="m2256.79 1463.98c0-32.593 26.462-59.055 59.055-59.055 32.594 0 59.056 26.462 59.056 59.055 0 32.594-26.462 59.055-59.056 59.055-32.593 0-59.055-26.461-59.055-59.055z" stroke="#0f0"/><path d="m1120.04 2063.39-58.037-100.524c-6.178-10.7-19.76-14.838-30.854-9.4-44.498 21.811-93.402 33.152-142.958 33.152-178.182 0-324.803-146.621-324.803-324.803s146.621-324.803 324.803-324.803c46.195 0 91.863 9.855 133.946 28.905 16.514 7.476 36.235 1.135 45.299-14.563l52.604-91.114c4.215-7.299 12.029-11.811 20.458-11.811h960.349c12.959 0 23.622-10.663 23.622-23.622 0-6.262-2.49-12.275-6.918-16.703l-277.559-277.559c-4.429-4.429-10.441-6.919-16.704-6.919h-935.097c-404.959 0-738.189 333.231-738.189 738.189 0 404.959 333.23 738.189 738.189 738.189h935.097c6.263 0 12.275-2.49 16.704-6.919l277.559-277.559c4.428-4.428 6.918-10.441 6.918-16.703 0-12.959-10.663-23.622-23.622-23.622h-960.349c-8.429 0-16.243-4.512-20.458-11.811" stroke="#00f"/><path d="m1099.58 2075.2-58.038-100.524c-47.733 23.397-100.194 35.563-153.354 35.563-191.14 0-348.425-157.285-348.425-348.425s157.285-348.425 348.425-348.425c49.554 0 98.544 10.572 143.688 31.007 5.504 2.492 12.078.379 15.099-4.854l52.605-91.114c8.429-14.599 24.057-23.622 40.915-23.622h960.349l-277.559-277.559h-935.097c-392 0-714.567 322.567-714.567 714.567s322.567 714.567 714.567 714.567h935.097l277.559-277.559h-960.349c-16.858 0-32.486-9.023-40.915-23.622" stroke="#f00"/><path d="m1183.46 1661.81c0-162.967-132.309-295.276-295.276-295.276s-295.276 132.309-295.276 295.276 132.309 295.276 295.276 295.276 295.276-132.309 295.276-295.276z" stroke="#0f0"/><path d="m935.433 1111.12c0 12.959 10.663 23.622 23.622 23.622h744.095c12.958 0 23.622-10.663 23.622-23.622v-50.197c0-12.958-10.664-23.622-23.622-23.622h-744.095c-12.959 0-23.622 10.664-23.622 23.622z" stroke="#0f0"/><path d="m1412.3 2237.6c0-32.593-26.462-59.055-59.055-59.055s-59.055 26.462-59.055 59.055c0 32.594 26.462 59.055 59.055 59.055s59.055-26.461 59.055-59.055z" stroke="#0f0"/><path d="m1043.21 2237.6c0-32.593-26.462-59.055-59.055-59.055-32.594 0-59.056 26.462-59.056 59.055 0 32.594 26.462 59.055 59.056 59.055 32.593 0 59.055-26.461 59.055-59.055z" stroke="#0f0"/><path d="m2547.64 1888.19h-1340.55c-6.48 0-11.811-5.332-11.811-11.811v-11.811c0-6.48 5.331-11.811 11.811-11.811h1340.55c6.479 0 11.811 5.331 11.811 11.811v11.811c0 6.479-5.332 11.811-11.811 11.811" stroke="#0f0"/><path d="m2931.5 1793.7c6.479 0 11.811 5.331 11.811 11.811v129.921c0 6.479-5.332 11.811-11.811 11.811h-307.087c-6.479 0-11.811-5.332-11.811-11.811v-129.921c0-6.48 5.332-11.811 11.811-11.811z" stroke="#0f0"/><path d="m3138.19 1764.17c6.479 0 11.811 5.332 11.811 11.811v188.976c0 6.48-5.332 11.811-11.811 11.811h-129.921c-6.48 0-11.811-5.331-11.811-11.811v-188.976c0-6.479 5.331-11.811 11.811-11.811z" stroke="#0f0"/><path d="m752.362 673.795h1340.55c6.48 0 11.811-5.332 11.811-11.811v-11.812c0-6.479-5.331-11.811-11.811-11.811h-1340.55c-6.479 0-11.811 5.332-11.811 11.811v11.812c0 6.479 5.332 11.811 11.811 11.811" stroke="#0f0"/><path d="m368.504 579.306c-6.479 0-11.811 5.332-11.811 11.811v129.922c0 6.479 5.332 11.811 11.811 11.811h307.087c6.479 0 11.811-5.332 11.811-11.811v-129.922c0-6.479-5.332-11.811-11.811-11.811z" stroke="#0f0"/><path d="m161.811 549.779c-6.479 0-11.811 5.331-11.811 11.811v188.976c0 6.48 5.332 11.811 11.811 11.811h129.921c6.48 0 11.811-5.331 11.811-11.811v-188.976c0-6.48-5.331-11.811-11.811-11.811z" stroke="#0f0"/></g></g></svg>