<svg clip-rule="evenodd" fill-rule="evenodd" viewBox="0 0 3300 2550" xmlns="http://www.w3.org/2000/svg"><g fill="none"><path d="m0 0h3300v2550h-3300z"/><path d="m3119.24 845.65c8.124 9.309 7.643 23.499-1.094 32.236l-42.55 42.55c-4.428 4.428-10.441 6.919-16.703 6.919h-557.145c-12.958 0-23.622-10.664-23.622-23.622v-543.308c0-12.958 10.663-23.622 23.622-23.622h557.145c6.262 0 12.275 2.491 16.703 6.919l42.55 42.55c8.736 8.737 9.218 22.927 1.094 32.236-106.298 121.797-106.298 305.345 0 427.142" stroke="#0f0" stroke-width="3.13"/><path d="m174.973 903.733v-543.307c.001-12.958 10.664-23.622 23.623-23.622h694.877c6.262 0 12.275 2.491 16.703 6.919l1.3 1.3c9.067 9.067 23.945 9.181 33.15.254l1.863-1.807c4.406-4.274 10.308-6.666 16.446-6.666h1432.51c12.959 0 23.622 10.664 23.622 23.622v543.307c0 12.959-10.663 23.622-23.622 23.622h-1432.51c-6.321.046-12.402-2.448-16.872-6.918l-1.433-1.433c-9.164-9.163-24.244-9.163-33.407 0l-1.433 1.433c-4.428 4.428-10.441 6.918-16.703 6.918h-694.491c-12.959 0-23.623-10.663-23.623-23.622z" stroke="#00f"/><g stroke-width="3.13"><path d="m234.029 626.174c0-12.958 10.663-23.622 23.622-23.622h1340.55c12.959 0 23.622 10.664 23.622 23.622v11.811c0 12.959-10.663 23.622-23.622 23.622h-1340.55c-12.959 0-23.622-10.663-23.622-23.622z" stroke="#f00"/><path d="m1674.97 720.663c-12.959 0-23.623-10.664-23.623-23.623v-129.921c0-12.958 10.664-23.622 23.623-23.622h307.086c12.959 0 23.622 10.664 23.622 23.622v129.921c0 12.959-10.663 23.623-23.622 23.623z" stroke="#f00"/><path d="m2058.83 750.19c-12.959 0-23.622-10.663-23.622-23.622v-188.976c0-12.959 10.663-23.622 23.622-23.622h129.921c12.959 0 23.622 10.663 23.622 23.622v188.976c0 12.959-10.663 23.622-23.622 23.622z" stroke="#f00"/><path d="m3119.24 1488.57c8.124 9.309 7.643 23.5-1.094 32.236l-42.55 42.55c-4.428 4.428-10.441 6.919-16.703 6.919h-557.145c-12.958 0-23.622-10.663-23.622-23.622v-543.307c0-12.959 10.663-23.622 23.622-23.622h557.145c6.262 0 12.275 2.49 16.703 6.918l42.55 42.55c8.736 8.737 9.218 22.927 1.094 32.236-106.298 121.797-106.298 305.345 0 427.142" stroke="#0f0"/></g><path d="m174.973 1546.65v-543.307c.001-12.959 10.664-23.622 23.623-23.622h694.877c6.262 0 12.275 2.49 16.703 6.918l1.3 1.301c9.067 9.066 23.945 9.18 33.15.253l1.863-1.807c4.406-4.273 10.308-6.665 16.446-6.665h1432.51c12.959 0 23.622 10.663 23.622 23.622v543.307c0 12.958-10.663 23.622-23.622 23.622h-1432.51c-6.321.045-12.402-2.449-16.872-6.918l-1.433-1.434c-9.164-9.163-24.244-9.163-33.407 0l-1.433 1.433c-4.428 4.428-10.441 6.919-16.703 6.919h-694.491c-12.959 0-23.623-10.664-23.623-23.622z" stroke="#00f"/><path d="m234.029 1269.1c0-12.959 10.663-23.622 23.622-23.622h1340.55c12.959 0 23.622 10.663 23.622 23.622v11.811c0 12.958-10.663 23.622-23.622 23.622h-1340.55c-12.959 0-23.622-10.664-23.622-23.622z" stroke="#f00" stroke-width="3.13"/><path d="m1674.97 1363.58c-12.959 0-23.623-10.664-23.623-23.622v-129.922c0-12.958 10.664-23.622 23.623-23.622h307.086c12.959 0 23.622 10.664 23.622 23.622v129.922c0 12.958-10.663 23.622-23.622 23.622z" stroke="#f00" stroke-width="3.13"/><path d="m2058.83 1393.11c-12.959 0-23.622-10.663-23.622-23.622v-188.976c0-12.959 10.663-23.622 23.622-23.622h129.921c12.959 0 23.622 10.663 23.622 23.622v188.976c0 12.959-10.663 23.622-23.622 23.622z" stroke="#f00" stroke-width="3.13"/></g></svg>