<?xml version="1.0" encoding="UTF-8" standalone="no"?>
<!DOCTYPE svg PUBLIC "-//W3C//DTD SVG 1.1//EN" "http://www.w3.org/Graphics/SVG/1.1/DTD/svg11.dtd">
<svg width="100%" height="100%" viewBox="0 0 863 1025" version="1.1" xmlns="http://www.w3.org/2000/svg" xmlns:xlink="http://www.w3.org/1999/xlink" xml:space="preserve" xmlns:serif="http://www.serif.com/" style="fill-rule:evenodd;clip-rule:evenodd;stroke-linecap:round;stroke-linejoin:round;stroke-miterlimit:1.5;">
    <rect id="Artboard1" x="0" y="0" width="862.309" height="1024.19" style="fill:none;"/>
    <path d="M662.977,50l0,270.572l-600,0l0,-270.572l600,0Zm-515.772,176.572c-0,-0 9.907,3.929 18.755,-2.265c8.847,-6.193 12.723,-21.748 31.5,-34.383c18.776,-12.635 34.077,-5.892 40.432,7.471c0,-0 -11.114,-6.998 -16.625,2.119c-5.51,9.118 0.978,22.437 9.886,21.884c8.908,-0.553 23.69,-7.893 40.448,-26.533c16.758,-18.641 21.507,-36.601 42.054,-49.896c20.547,-13.294 36.212,-15.619 46.324,-15.911c10.113,-0.292 33.139,2.267 41.194,10.491c8.055,8.224 12.417,17.712 12.417,25.994c-0,8.282 -4.362,14.156 -4.362,14.156c-0,-0 -3.156,-15.195 -17.806,-12.681c-14.65,2.514 -13.356,28.289 2.225,35.23c15.581,6.942 23,4.816 45.412,-8.867c22.412,-13.682 30.873,-21.553 39.09,-27.838c8.216,-6.285 21.529,-11.63 35.836,-9.977c14.307,1.652 23.785,4.979 30.332,13.966c6.546,8.986 2.912,21.128 2.912,21.128c-0,0 -4.638,-9.865 -12.417,-9.865c-7.779,0 -15.369,6.985 -15.369,16.6c-0,9.615 9.178,18.37 18.482,18.37c9.304,-0 10.211,-0.913 12.703,-2.41c2.491,-1.498 8.294,-4.185 14.303,-4.185c6.009,-0 11.879,3.183 13.819,7.238c0,0 -9.371,-1.808 -18.96,1.893c-9.588,3.7 -17.105,12.95 -14.178,9.478c2.927,-3.472 -4.682,7.552 -18.594,11.579c-13.912,4.027 -26.056,1.065 -32.258,-2.901c-6.202,-3.966 -10.522,-10.146 -10.522,-17.114c0,-6.969 2.133,-10.473 7.761,-11.892c5.627,-1.419 10.006,2.006 10.006,2.006c0,-0 -6.76,-14.189 -22.484,-14.189c-15.724,0 -24.524,6.85 -33.095,11.742c-8.572,4.892 -45.349,28.389 -60.605,32.348c-15.256,3.96 -25.526,2.241 -36.998,-2.901c-11.472,-5.141 -21.609,-13.673 -21.609,-27c0,-13.327 13.922,-17.532 22.101,-12.062c-0,-0 -8.593,-10.57 -25.056,-12.495c-16.463,-1.925 -35.429,7.399 -50.85,24.27c-15.422,16.871 -27.611,25.467 -36.581,29.33c-8.97,3.862 -15.283,1.521 -21.465,-2.043c-6.181,-3.563 -8.375,-9.65 -8.47,-16.376c0,-0 -8.459,9.416 -15.123,12.654c-7.082,3.441 -16.397,6.623 -28.583,5.277c-6.512,-0.72 -15.982,-11.44 -15.982,-11.44Z" style="fill:none;stroke:#000;stroke-width:4.17px;"/>
    <path d="M62.977,502.14l0,16.172c0,1.758 1.758,10.547 1.758,12.305l0,3.515l1.758,5.274c0,1.758 1.758,7.031 1.758,7.031c-0,1.758 1.758,10.547 1.758,12.305c-0,-0 5.273,12.304 7.031,15.82c-0,1.758 3.516,7.383 3.516,7.383l3.515,3.515c1.758,1.758 7.383,8.79 9.141,10.547c-0,0 5.273,3.516 7.031,5.274c1.758,-0 5.273,3.515 5.273,3.515l7.032,3.516c1.758,0 14.062,8.789 15.82,8.789l17.93,0c-0,0 8.789,-1.758 10.547,-3.516c1.757,0 5.273,-3.515 7.031,-3.515c1.758,-0 10.547,-8.789 12.305,-8.789l3.867,-1.758l3.515,-3.516l0,-1.757l1.758,-3.516l5.274,-7.031c-0,-1.758 3.515,-9.141 5.273,-10.899c0,-1.758 3.516,-8.789 3.516,-8.789c-0,-1.758 1.757,-8.789 1.757,-10.547c0,-1.758 1.758,-5.273 1.758,-7.031l0,-42.539c0,-1.758 -1.758,-7.031 -1.758,-7.031c0,-1.758 -5.273,-5.274 -7.031,-5.274c-1.758,0 -14.062,-3.515 -19.687,-3.515c-1.758,-0 -12.305,-1.758 -15.821,-1.758l-3.515,-0l-3.516,1.758c-1.758,-0 -10.547,8.789 -12.305,8.789l-5.273,3.515l-2.109,1.758c-0,0 -1.758,5.625 -1.758,7.383c-0,1.758 -1.758,10.547 -1.758,12.305l0,1.757c0,3.516 3.516,15.821 3.516,17.579c-0,1.757 3.867,5.273 5.625,5.273l8.789,0l5.273,-1.758l1.758,1.758l-0,14.063c-0,1.757 -1.758,5.273 -3.516,7.031l-3.515,1.758l-1.758,-0l-3.516,-1.758l-5.273,-3.516l-1.758,-1.758c-2.109,-1.757 -7.383,-8.789 -7.383,-10.547l0,-1.757l-1.758,-1.758c0,-1.758 -3.515,-7.031 -3.515,-8.789c-0,-1.758 -1.758,-12.305 -1.758,-15.821l-0,-10.546c-0,-3.516 1.758,-19.688 1.758,-23.204c-0,-1.757 1.758,-7.031 1.758,-8.789l1.757,-3.515l0,-5.274l1.758,-3.515c0,-1.758 1.758,-5.274 1.758,-5.274l0,-5.273c0,-0 3.516,-3.516 3.516,-5.274c2.109,-1.757 5.625,-5.273 7.382,-7.031c1.758,1.758 5.274,8.789 5.274,10.547c-0,1.758 1.758,14.063 1.758,17.578l1.758,1.758l3.515,1.758l17.578,-0c5.274,-0 17.93,-1.758 19.688,-1.758c1.758,-0 8.789,-3.516 10.547,-5.273l-1.758,-5.274c-0,-1.758 -1.758,-19.336 -1.758,-21.094l-1.758,-5.273l-1.758,-7.383l-1.757,-1.758l-1.758,-3.515l-1.758,-1.758l-1.758,-3.516l-5.273,-5.273l-7.383,-8.789l-3.516,-1.758l-5.273,-3.516c-0,0 -3.516,-1.758 -5.274,-1.758c-3.515,-1.757 -12.304,-3.515 -12.304,-3.515l-10.547,-0c-1.758,-0 -10.899,1.758 -12.656,1.758c-1.758,-0 -7.032,1.757 -7.032,1.757c-1.757,0 -7.031,3.516 -8.789,5.274c-1.758,-0 -7.031,7.031 -8.789,7.031l-3.515,1.758c-0,-0 -5.274,7.031 -7.032,8.789c-2.109,1.758 -7.382,10.898 -7.382,10.898l-1.758,7.032l-1.758,3.515c-1.758,3.516 -7.031,19.336 -7.031,21.094c-1.758,3.516 -5.274,19.336 -5.274,21.094c0,1.758 -1.758,12.305 -1.758,15.82Zm12.305,19.688l0,-12.305c0,-3.867 1.758,-17.93 1.758,-19.688l1.758,-7.031l1.758,-8.789c-0,-1.758 7.382,-19.336 7.382,-21.094l1.758,-8.789c0,0 7.031,-10.547 8.789,-14.414c1.758,-1.758 3.516,-5.273 3.516,-5.273l8.789,-3.516l1.758,-3.515c-0,-0 3.515,-1.758 5.273,-1.758l17.93,-0c1.758,-0 7.031,1.758 8.789,1.758l3.516,1.757c1.757,1.758 10.546,8.789 12.304,10.547c1.758,1.758 7.031,7.383 7.031,7.383c1.758,1.758 5.274,8.789 5.274,10.547c-0,1.758 1.758,8.789 1.758,10.547l1.758,5.273l-0,3.516c-1.758,-0 -8.79,1.758 -10.547,1.758l-5.274,-0c0,-1.758 -1.758,-7.032 -1.758,-8.789c0,-1.758 -3.515,-10.547 -3.515,-12.305c-0,-1.758 -1.758,-5.273 -1.758,-5.273c-0,-1.758 -5.273,-5.274 -7.031,-7.032c-0,0 -5.274,-3.867 -7.032,-3.867l-3.515,0c-3.867,0 -12.656,2.109 -14.414,2.109l-3.516,1.758l-8.789,8.789l-3.516,5.274l-3.515,3.515c-0,3.516 -3.516,19.336 -3.516,22.852c0,1.758 -1.758,5.273 -1.758,7.031l0,39.024c0,-0 1.758,7.031 1.758,10.547c0,1.757 1.758,8.789 1.758,8.789c0,-0 1.758,3.515 1.758,5.273c1.758,5.273 7.031,17.578 7.031,19.336c0,1.758 3.516,5.273 3.516,7.031l1.758,1.758c3.515,1.758 10.546,9.141 10.546,9.141c0,-0 5.274,1.757 7.032,1.757l10.898,0c0,0 3.516,-1.757 5.274,-1.757l3.515,-1.758c1.758,-2.11 7.031,-7.383 8.789,-9.141c0,0 3.516,-3.515 3.516,-5.273l1.758,-3.516c-0,-1.758 1.757,-7.031 1.757,-8.789l0,-3.516c0,-1.757 -3.515,-14.062 -5.273,-15.82l-3.516,-1.758c-1.757,0 -5.273,-1.757 -5.273,-1.757l-10.547,-0l0,-15.821l1.758,-1.758c-0,0 12.305,-1.757 15.82,-1.757c3.516,-0 15.821,1.757 17.578,1.757l2.11,5.274c-0,1.758 1.758,7.031 1.758,7.031l-0,14.063c-0,5.273 -1.758,24.609 -1.758,29.882c-0,1.758 -3.867,8.789 -5.625,10.899c-0,1.758 -5.274,7.031 -5.274,7.031c-1.758,1.758 -8.789,7.031 -10.547,8.789c0,0 -5.273,3.516 -7.031,3.516c-1.758,1.758 -8.789,3.515 -8.789,3.515l-1.758,0c-7.031,0 -14.414,-3.515 -19.687,-5.273c-1.758,-1.758 -10.547,-5.273 -10.547,-5.273c-0,-0 -7.031,-5.274 -8.789,-7.032l-1.758,-1.758c-1.758,-1.757 -8.789,-9.14 -8.789,-10.898c-0,0 -3.516,-3.516 -3.516,-5.273l-2.109,-3.516l-1.758,-7.031l-1.758,-5.274c0,-1.758 -1.757,-8.789 -1.757,-10.547c-0,-1.757 -1.758,-8.789 -1.758,-8.789c-0,-1.757 -3.516,-10.547 -3.516,-12.304Zm144.844,80.507l-0,10.547c-0,1.758 3.515,3.516 3.515,3.516c1.758,-0 5.274,-1.758 5.274,-3.516l33.398,0c0,-1.757 3.516,-8.789 5.274,-10.547l3.515,-3.515l5.274,-3.516l1.758,-3.515l1.757,-8.789c0,-3.165 3.516,-13.711 3.516,-15.469c0,-3.516 3.516,-12.305 3.516,-12.305c-0,-1.758 3.515,-5.273 5.273,-5.273c1.758,-0 10.547,-1.758 12.305,-1.758l3.515,-1.758l3.516,0c0,1.758 3.516,8.789 3.516,10.547c-0,1.758 3.515,22.851 5.273,29.531c0,1.758 1.758,10.547 1.758,12.305c-0,1.758 3.516,5.273 3.516,5.273l24.609,0c1.758,0 8.789,-1.758 10.547,-3.515l3.515,-3.516l1.758,-3.516l3.516,-3.515l3.516,-5.274l1.757,-1.757c1.758,-1.758 5.274,-10.196 5.274,-10.196l-0,-12.304l-1.758,-3.516c-0,-0 -1.758,-5.274 -1.758,-7.031c0,-1.758 -3.515,-15.821 -3.515,-17.578c-1.758,-5.274 -7.032,-27.774 -8.79,-33.047l-1.757,-3.516l-1.758,-8.789l-1.758,-5.273c0,-1.758 -5.273,-10.547 -5.273,-12.305c-0,-1.758 -3.516,-12.305 -3.516,-14.063c-0,-1.757 -7.031,-14.062 -8.789,-17.578l-5.274,-6.679l-1.757,-5.274l-1.758,-3.516l-1.758,-7.031c0,-1.758 -3.516,-7.031 -3.516,-8.789l-1.757,-1.758c-1.758,-1.757 -7.032,-3.515 -7.032,-3.515c0,-0 -8.789,-1.758 -12.304,-1.758l-1.758,-0c-5.274,-0 -21.094,1.758 -21.094,1.758l-7.031,3.515l-5.274,1.758l-1.757,3.516l-5.274,5.273l-1.758,3.516c-1.757,3.515 -7.031,15.82 -7.031,17.226l-1.758,8.789l-1.758,7.032c0,1.758 -3.515,14.062 -3.515,15.82c-0,1.758 -5.274,19.336 -5.274,21.094c0,1.758 -1.757,10.547 -1.757,12.304c-0,1.758 -3.516,13.711 -3.516,15.469c-0,1.758 -1.758,8.789 -1.758,10.547c0,1.758 -3.515,14.063 -3.515,17.578c-0,1.758 -3.516,14.063 -3.516,15.821c-0,1.757 -3.516,15.82 -3.516,17.578l-1.758,6.679c0,1.758 -1.757,8.789 -1.757,10.547l-1.758,7.031Zm52.734,-176.484c3.516,0 15.821,-1.758 19.336,-1.758l10.547,0l1.758,3.516c-0,1.758 3.515,15.469 3.515,17.226c0,1.758 5.274,14.063 5.274,15.821l1.758,7.031c1.758,7.031 5.273,12.305 7.031,19.336l1.758,7.031c-0,1.758 7.031,20.742 8.789,27.774c-0,1.757 1.758,5.273 1.758,5.273c-0,1.758 3.515,7.031 3.515,8.789l1.758,3.516l1.758,8.789c-0,1.758 3.516,8.789 3.516,12.305l1.757,5.273c0,1.758 3.516,12.305 3.516,14.062c-0,1.407 3.516,8.438 3.516,10.196l-0,1.758l-1.758,1.757l-17.578,0c-0,0 -1.758,-10.546 -3.516,-13.711c0,-1.757 -5.273,-24.609 -5.273,-26.367c-0,-1.758 -3.516,-12.304 -3.516,-14.062l-1.758,-3.516l-1.758,-1.758l-5.273,0c-1.758,0 -7.031,1.758 -8.789,1.758l-5.274,1.758l-12.304,-0c-1.758,-0 -14.063,1.758 -15.821,1.758l-5.273,1.758l-1.758,1.757c0,3.516 -3.515,21.094 -5.273,24.61c-0,1.758 -3.516,7.031 -3.516,8.789c0,-0 -1.758,6.68 -1.758,10.195c0,1.758 -1.758,10.547 -1.758,12.305l-1.757,3.515c-0,0 -5.274,1.758 -7.032,1.758l-10.546,0l-0,-5.273c-0,-1.758 3.515,-8.789 3.515,-10.547c0,-1.758 1.758,-8.438 1.758,-10.195c-0,-1.758 5.273,-24.61 5.273,-26.368c0,-1.757 3.516,-17.578 3.516,-19.335l1.758,-5.274c-0,-1.758 1.758,-7.031 1.758,-7.031c-0,-3.516 5.273,-27.774 5.273,-31.289l1.758,-7.031c-0,-1.758 5.273,-24.61 5.273,-26.368c1.758,-3.515 5.274,-17.578 5.274,-19.336c-0,-1.406 3.515,-8.437 5.273,-10.195Zm-7.031,106.524l1.758,1.757l3.515,0c1.758,0 8.789,-3.515 10.547,-3.515c8.789,-1.758 17.578,-1.758 26.367,-5.274c1.758,0 3.516,-1.758 3.516,-1.758l0,-5.273c0,-1.758 -3.516,-8.789 -3.516,-10.195c0,-0 -1.757,-5.274 -1.757,-7.032c-0,-1.757 -5.274,-21.093 -5.274,-22.851c0,-1.758 -3.515,-8.789 -3.515,-10.547l-1.758,-7.031c-0,-1.758 -3.516,-8.789 -3.516,-8.789c0,-1.758 -5.273,-7.032 -7.031,-7.032l-3.516,0l-1.758,1.758c-1.757,1.758 -3.515,7.032 -3.515,7.032l-0,8.789c-0,7.031 -3.516,26.367 -3.516,28.125c0,1.757 -5.273,10.546 -5.273,12.304c-0,1.758 -1.758,6.68 -1.758,6.68l-0,22.852Zm24.609,-47.11l1.758,5.274c0,1.757 1.758,7.031 1.758,8.789l-0,5.273c-1.758,1.758 -5.273,1.758 -7.031,1.758l-0,-10.547c-0,0 1.758,-5.273 1.758,-7.031l1.757,-3.516Zm119.18,133.945l3.516,1.758l10.547,0c5.625,0 21.445,-1.758 23.203,-1.758c1.757,0 14.062,-1.757 17.578,-3.515c1.758,-0 7.031,-1.758 7.031,-1.758c1.758,0 10.898,-3.516 10.898,-3.516c1.758,0 10.547,-5.273 14.063,-7.031c1.758,0 7.031,-5.273 8.789,-5.273c1.758,-1.758 7.031,-5.274 7.031,-5.274c1.758,-1.758 7.032,-7.031 9.141,-8.789l1.758,-3.515l3.515,-3.516c0,-1.758 3.516,-7.031 5.274,-8.789c1.758,-3.516 8.789,-15.82 8.789,-17.578c-0,-1.758 1.758,-5.274 1.758,-7.031l-0,-29.883l-1.758,-5.274l-5.274,-5.273l-3.515,-5.274l-3.516,-3.515c-1.758,-1.758 -14.414,-7.031 -17.93,-8.789l1.758,-5.274c0,-1.758 7.032,-10.547 7.032,-12.304c2.109,-1.758 3.867,-7.032 3.867,-7.032l-0,-22.851l-1.758,-3.516l-2.109,-5.273c-0,-1.758 -3.516,-7.032 -5.274,-8.789l-1.758,-1.758l-1.758,-5.274l-3.515,-3.515c-1.758,-1.758 -8.789,-7.031 -8.789,-7.031c-1.758,-0 -7.031,-3.516 -7.031,-3.516c-1.758,-0 -12.305,-1.758 -15.821,-1.758c-2.109,0 -23.203,-1.758 -30.234,-1.758l-1.758,0c-1.758,0 -8.789,1.758 -8.789,1.758c-1.758,0 -10.898,8.789 -12.656,10.547l-7.032,3.516c-1.757,1.757 -8.789,7.031 -8.789,7.031c0,-0 -1.757,3.515 -1.757,5.273c-0,5.274 -1.758,33.399 -1.758,38.672l-0,21.094c-0,5.273 1.758,36.914 1.758,43.945c-0,1.758 1.757,22.852 1.757,24.61l0,19.336c0,7.031 3.516,40.429 3.516,47.46Zm1.758,-137.109l-0,-54.492c1.758,-0 5.273,-1.758 7.031,-1.758l9.141,-1.758c1.758,0 7.031,-3.515 8.789,-3.515c1.758,-0 10.547,-1.758 14.062,-1.758l14.063,-0c1.758,-0 10.898,1.758 12.656,1.758c1.758,-0 5.273,1.757 5.273,1.757c1.758,0 8.79,5.274 10.547,7.032l3.516,3.515c1.758,1.758 5.273,7.032 5.273,7.032c0,-0 1.758,3.515 1.758,5.273c0,1.758 1.758,8.789 1.758,10.547l0,12.305c0,-0 -1.758,3.515 -1.758,5.273l-1.758,3.516l-1.757,5.273c-0,0 -3.516,3.516 -3.516,5.274l-3.516,3.515c-1.757,1.758 -10.547,7.031 -12.304,8.789l-1.758,1.758l-0,3.516l1.758,3.515c3.515,0 15.82,1.758 17.578,1.758l10.547,5.274c1.757,-0 7.031,5.273 8.789,5.273c1.758,1.758 3.867,3.516 3.867,5.273c-0,1.758 1.758,5.274 1.758,5.274l-0,17.578c-0,-0 -1.758,8.789 -3.867,10.547c-0,1.758 -3.516,5.273 -3.516,7.031c-1.758,1.758 -7.031,10.547 -7.031,10.547l-12.305,12.305c-0,-0 -3.516,3.515 -5.273,3.515c-1.758,1.758 -7.032,5.274 -8.79,5.274c-3.515,1.758 -9.14,3.515 -12.656,5.273c0,0 -8.789,1.758 -10.547,1.758c-1.757,-0 -10.547,1.758 -12.304,1.758l-7.032,1.758l-16.171,-0l-3.516,-3.516c-0,-0 -1.758,-8.789 -1.758,-12.305c0,-3.515 -1.758,-17.578 -1.758,-19.336l0,-22.851c0,-3.516 -3.515,-26.367 -3.515,-29.883l-0,-14.063c-0,-1.757 -1.758,-22.851 -1.758,-24.609Zm21.445,40.43l0,10.547l1.758,7.031c1.758,5.273 3.516,17.578 3.516,17.578c-0,5.273 1.757,33.398 1.757,38.672l8.789,-0l5.274,-1.758l1.758,0l3.515,-1.758l8.789,-1.758l3.516,-1.757l3.867,-3.516l3.516,-1.758l7.031,-7.031l3.516,-5.273l1.758,-1.758c-0,-1.758 3.515,-5.274 3.515,-5.274c1.758,-1.758 5.274,-10.547 5.274,-10.547l-0,-12.304c-0,-0 -1.758,-7.032 -3.516,-8.789l-1.758,-3.516l-3.515,-3.516c-1.758,-1.757 -7.032,-5.273 -7.032,-5.273c-1.758,-1.758 -8.789,-5.273 -10.898,-5.273c-1.758,-0 -7.031,-1.758 -8.789,-1.758l-12.305,-0c0,-0 -8.789,1.758 -10.547,3.515c-1.758,0 -5.273,3.516 -7.031,3.516l-1.758,1.758Zm-5.273,-79.102l-0,15.821c-0,1.757 1.758,12.304 3.515,15.82l1.758,5.273c0,1.758 1.758,5.274 1.758,7.032c-0,1.757 1.758,8.789 1.758,10.546l1.758,1.758c1.757,0 3.515,1.758 3.515,1.758l5.274,-5.273c1.757,-0 10.547,-3.516 12.304,-3.516l3.516,-1.758l7.031,-1.758l3.516,-1.757c2.109,-1.758 10.898,-14.063 12.656,-15.821c0,0 3.516,-8.789 3.516,-10.547l-0,-3.515c-0,-0 -1.758,-7.032 -3.516,-8.789c0,-1.758 -1.758,-3.516 -1.758,-3.516c0,0 -3.515,-3.516 -5.273,-3.516c-1.758,-1.757 -7.383,-3.515 -7.383,-3.515c0,-0 -12.305,-1.758 -15.82,-1.758l-3.516,-0c-1.758,-0 -7.031,1.758 -8.789,1.758l-5.273,1.758l-8.789,1.757l-1.758,1.758Zm31.64,80.86l5.274,-0c-0,-0 7.031,1.757 8.789,3.515c2.109,1.758 10.898,5.274 10.898,5.274c0,-0 1.758,1.757 1.758,3.515c0,1.758 1.758,5.274 1.758,5.274l-0,8.789c-0,-0 -1.758,3.515 -3.516,5.273l-7.031,7.031l-7.383,1.758l-5.273,1.758l-3.516,0c0,-3.516 -1.758,-15.82 -1.758,-19.336l0,-22.851Zm-10.547,-75.586l15.821,-0c1.758,-0 7.031,1.757 7.031,1.757l3.867,3.516l0,7.031c0,0 -5.625,3.516 -7.383,3.516l-7.031,1.758c-1.758,-0 -7.031,3.515 -8.789,3.515l-1.758,-1.757c0,-1.758 -1.758,-7.032 -1.758,-8.789l0,-10.547Zm114.61,151.172l-0,5.273c-0,1.758 1.758,7.031 1.758,7.031c-0,1.758 5.273,5.274 5.273,5.274l10.195,-0c1.758,-0 8.789,-3.516 10.547,-3.516c1.758,0 19.336,-3.516 26.016,-5.273c3.516,-0 10.547,-1.758 10.547,-1.758l29.531,-0c1.758,-0 8.789,-3.516 10.547,-3.516c1.758,0 3.516,-1.758 3.516,-1.758l1.757,-5.273l0,-28.477c0,0 -1.757,-3.515 -3.515,-3.515l-3.516,-1.758c-1.758,-0 -5.273,-1.758 -5.273,-1.758l-24.258,0c-1.758,0 -8.789,1.758 -10.547,1.758l-1.758,-0c-1.758,-1.758 -3.515,-5.274 -3.515,-5.274l-0,-15.82c-0,0 -1.758,-3.515 -1.758,-5.273l15.82,-0c0,-0 3.516,-5.274 3.516,-7.032l5.273,-3.515c1.758,-1.758 7.031,-8.789 8.789,-10.547l1.758,-1.758l1.406,-3.515l0,-23.204l-1.406,-3.515c-1.758,-0 -8.789,-5.274 -10.547,-5.274l-1.758,0c-3.515,0 -5.273,1.758 -8.789,1.758l-1.758,0c-1.757,0 -14.062,-1.758 -15.82,-1.758l-1.406,-5.273l-0,-17.578c3.164,-0 15.469,-1.758 17.226,-1.758l3.516,-1.758c1.758,0 15.82,-1.758 17.578,-1.758l3.164,-1.757l1.758,-1.758l3.516,-5.274c-0,-1.758 5.273,-10.898 7.031,-12.656l1.758,-3.516l-0,-3.515c-0,-3.516 -3.516,-15.821 -3.516,-17.578l-3.516,-3.516l-3.515,-1.758l-33.047,0c-5.273,0 -31.289,1.758 -36.563,1.758c-1.757,0 -5.273,3.516 -7.031,3.516c0,-0 -13.711,12.304 -18.984,17.578l-5.274,5.273l0,3.516c0,3.515 3.516,35.508 3.516,39.023l0,39.024c0,1.758 1.758,22.851 1.758,29.883c-0,1.757 1.758,21.093 1.758,22.851l-0,7.031c-0,10.547 -1.758,21.446 -1.758,31.993Zm8.789,-0l1.758,-3.516l-0,-65.391c-0,-1.758 -1.758,-24.961 -1.758,-26.718l-0,-70.665c1.758,-1.757 4.922,-3.515 8.437,-3.515c1.758,-0 8.789,-1.758 8.789,-1.758c5.274,0 38.321,-3.516 47.11,-3.516l7.031,0c0,0 1.758,5.274 1.758,7.032l-0,5.625c-3.516,-0 -17.578,3.515 -21.094,3.515c-1.758,0 -18.984,1.758 -20.742,1.758c-1.758,0 -8.789,1.758 -10.547,1.758c-1.758,-0 -5.273,1.758 -5.273,1.758c-0,-0 -1.758,3.515 -1.758,5.273l-0,1.758c-0,5.273 1.758,21.094 1.758,21.094l1.757,7.031c0,1.758 1.758,14.062 1.758,15.82c0,1.758 1.758,8.789 1.758,8.789c0,0 3.516,2.11 5.274,2.11l3.515,-0c1.758,-0 10.547,-3.867 12.305,-3.867l10.195,-0l1.758,1.757l-0,17.93c-1.758,0 -11.953,1.758 -13.711,1.758c-3.516,-0 -12.305,1.758 -12.305,1.758l-3.515,1.757l-3.516,3.516l0,19.336c0,5.273 3.516,26.367 3.516,31.992l1.758,1.758l8.789,0c1.757,0 15.468,-1.758 17.226,-1.758l22.852,0l1.758,1.758l-0,7.031l-1.758,3.516l-15.821,-0c-3.515,-0 -15.82,1.758 -18.984,1.758l-7.031,1.758c-5.274,1.757 -24.61,5.273 -26.367,5.273l-4.922,-0c-0,-0 -1.758,-3.516 -1.758,-5.273Z" style="fill-rule:nonzero;"/>
    <path d="M125.338,809.259l0,-108.74l30.084,0l-0,225l-30.084,0l0,-44.812l-32.277,-102.472l0,147.284l-30.084,0l0,-225l30.084,0l32.277,108.74Zm58.287,116.26l0,-225l30.084,0l-0,225l-30.084,0Zm120.648,-116.26l-0,-108.74l30.083,0l0,225l-30.083,0l-0,-44.812l-32.277,-102.472l-0,147.284l-30.084,0l-0,-225l30.084,0l32.277,108.74Zm47.319,88.997l19.742,-0c8.983,-0 13.475,-5.432 13.475,-16.295l-0,-181.442l30.083,0l0,187.082c0,25.279 -11.594,37.918 -34.784,37.918l-28.516,0l-0,-27.263Zm120.021,27.263l-30.084,0l-0,-186.455c-0,-25.697 12.013,-38.545 36.038,-38.545l22.562,0c24.025,0 36.038,12.848 36.038,38.545l-0,186.455l-30.084,0l0,-82.416l-34.47,-0l-0,82.416Zm34.47,-109.68l0,-74.895c0,-8.775 -4.387,-13.162 -13.161,-13.162l-8.148,0c-8.774,0 -13.161,4.387 -13.161,13.162l-0,74.895l34.47,0Zm103.099,27.264l0,-27.264l45.752,0l0,109.68l-58.913,0c-23.19,0 -34.785,-12.639 -34.785,-37.918l0,-148.537c0,-25.697 11.595,-38.545 34.785,-38.545l20.682,0c25.488,0 38.231,13.057 38.231,39.171l0,24.443l-30.083,0l-0,-20.055c-0,-10.864 -4.283,-16.296 -12.848,-16.296l-7.521,0c-8.775,0 -13.162,5.432 -13.162,16.296l0,137.883c0,10.863 4.387,16.295 13.162,16.295l20.369,-0l-0,-55.153l-15.669,-0Zm104.979,82.416c-24.234,0 -36.351,-12.744 -36.351,-38.231l0,-148.224c0,-25.697 12.013,-38.545 36.038,-38.545l28.83,0c24.025,0 36.038,12.848 36.038,38.545l-0,148.224c-0,25.487 -12.117,38.231 -36.351,38.231l-28.204,0Zm7.208,-27.263l15.355,-0c7.939,-0 11.908,-4.387 11.908,-13.162l0,-144.15c0,-8.775 -4.492,-13.162 -13.475,-13.162l-14.102,0c-8.774,0 -13.161,4.387 -13.161,13.162l-0,144.15c-0,8.775 4.492,13.162 13.475,13.162Z" style="fill-rule:nonzero;"/>
</svg>
